<svg width="231" height="231" viewBox="0 0 231 231" fill="none" xmlns="http://www.w3.org/2000/svg">
<path d="M196.261 128.875C192.226 113.83 195.626 95.558 196.78 90.3128C194.915 89.7411 192.948 89.5842 191.016 89.853C189.085 90.1217 187.235 90.8097 185.597 91.8688C184.102 96.5953 179.141 113.374 179.199 128.24C184.772 129.694 190.596 129.91 196.261 128.875Z" fill="#BBBBBB"/>
<path d="M200.123 76.8829H199.951C200.126 75.0746 199.745 73.2558 198.86 71.6695C197.974 70.0833 196.625 68.8052 194.993 68.0061C192.892 67.134 190.541 67.076 188.399 67.8433C186.257 68.6107 184.478 70.1483 183.408 72.1564C182.675 73.3141 182.208 74.6199 182.041 75.9797C181.873 77.3395 182.009 78.7196 182.439 80.0205C182.869 81.3214 183.582 82.5108 184.527 83.503C185.472 84.4952 186.625 85.2656 187.903 85.7586C187.403 88.008 186.574 92.6828 186.983 94.9816C187.257 96.495 188.264 96.8504 189.692 96.4226C191.381 95.7758 192.803 94.5776 193.727 93.022C195.405 90.3485 196.267 87.2436 196.206 84.0877C197.186 83.3109 198.006 82.3518 198.621 81.2633C198.725 81.3074 198.822 81.3655 198.91 81.4358C199.483 81.6708 200.126 81.6698 200.698 81.4328C201.271 81.1958 201.726 80.7422 201.966 80.1708C202.149 79.8406 202.245 79.469 202.245 79.0912C202.244 78.7135 202.147 78.3422 201.962 78.0126C201.777 77.6831 201.512 77.4062 201.19 77.2085C200.868 77.0108 200.501 76.8987 200.123 76.8829ZM193.436 91.7536C192.562 93.2486 191.304 94.9816 189.575 95.5003C187.5 96.1339 187.672 93.7753 187.787 92.3872C187.957 90.2147 188.285 88.0573 188.768 85.9323C191.033 86.378 193.382 85.945 195.339 84.7213C195.28 87.1845 194.627 89.5969 193.436 91.7536Z" fill="#E8E8E8"/>
<path d="M183.004 67.2C182.663 67.9865 182.521 68.8453 182.591 69.7C182.661 70.5547 182.941 71.3788 183.407 72.099C184.477 70.091 186.257 68.5536 188.399 67.7864C190.541 67.0193 192.892 67.0776 194.993 67.9498C196.633 68.7388 197.989 70.0148 198.876 71.6034C199.763 73.192 200.138 75.0157 199.95 76.8255H200.123C200.908 76.3703 201.594 75.7631 202.14 75.0395C202.715 73.8895 205.599 70.0819 203.865 67.4886C202.132 64.8954 202.14 67.4886 202.14 67.4886C202.14 67.4886 200.415 61.2625 197.356 60.4564C197.184 60.4149 197.004 60.4193 196.834 60.4692C196.664 60.5191 196.51 60.6127 196.387 60.7408C196.265 60.8688 196.178 61.0267 196.136 61.1988C196.093 61.3709 196.097 61.5511 196.146 61.7214L196.319 62.2412C196.319 62.2412 190.613 59.6468 186.52 60.8612C186.401 60.8965 186.296 60.9664 186.217 61.0619C186.138 61.1574 186.089 61.2743 186.077 61.3976C186.064 61.5209 186.089 61.6451 186.147 61.7544C186.206 61.8637 186.296 61.953 186.405 62.0112L186.75 62.2412C184.855 62.4437 183.047 63.1392 181.505 64.2583C179.488 65.9833 176.895 63.6833 176.895 64.5458C176.895 65.4083 177.527 68.6398 183.004 67.2Z" fill="#BBBBBB"/>
<path d="M206.35 129.336C206.292 130.371 203.294 178.157 203.294 178.733C200.851 179.81 198.141 180.131 195.513 179.653C194.404 179.48 193.32 179.171 192.285 178.733C192.285 178.618 191.306 136.252 191.306 136.368C191.306 135.733 190.441 135.793 190.386 136.368C190.375 136.483 187.446 176.369 187.446 176.486C184.179 177.614 180.627 177.614 177.36 176.486C177.417 174.929 178.855 131.751 178.915 130.946C178.57 130.888 178.281 130.773 177.995 130.716C177.995 130.831 176.5 176.886 176.5 176.771C176.5 177.001 176.673 177.116 176.845 177.231C180.473 178.566 184.458 178.566 188.086 177.231C188.189 177.209 188.281 177.15 188.344 177.066C188.408 176.981 188.438 176.876 188.431 176.771C188.442 176.643 190.631 146.091 190.621 146.222C190.679 147.717 191.37 178.962 191.37 178.962C191.359 179.045 191.376 179.129 191.418 179.202C191.459 179.275 191.523 179.332 191.6 179.365C194.222 180.527 197.113 180.946 199.957 180.575C201.373 180.375 202.753 179.968 204.05 179.365C204.127 179.332 204.191 179.274 204.232 179.202C204.274 179.129 204.29 179.045 204.28 178.962C204.51 175.584 207.36 129.083 207.449 128.815C207.108 129.037 206.738 129.212 206.35 129.336Z" fill="#BBBBBB"/>
<path d="M163.924 99.3048C163.565 98.4404 163.257 97.5553 163.004 96.6541L153.897 100.112L155.047 102.994C155.163 102.937 162.525 100.004 163.924 99.3048ZM185.597 91.9253C185.354 92.0589 185.124 92.2128 184.907 92.3853C180.652 94.6509 177.026 97.9393 174.358 101.954C173.757 102.845 172.911 103.543 171.923 103.964C170.934 104.386 169.845 104.513 168.786 104.331C167.727 104.149 166.744 103.665 165.953 102.937C165.162 102.21 164.598 101.27 164.329 100.229C162.427 101.034 156.547 103.515 155.51 103.919C157.007 107.614 158.84 111.164 160.986 114.524C163.579 117.983 168.767 118.963 171.822 117.233C171.181 121.105 171.142 125.052 171.707 128.935C174.169 129.945 176.715 130.735 179.316 131.298C178.694 119.508 181.877 103.23 185.597 91.9253Z" fill="#E8E8E8"/>
<path d="M54.1185 154.063L50.6029 86.0473C45.7469 83.4247 40.8859 80.8115 36.0198 78.2077C36.0347 78.3377 41.8997 156.482 41.8997 156.599C43.6098 156.247 43.8892 156.432 54.1185 154.063ZM133.893 98.1522C134.368 93.2428 136.524 63.7235 136.718 58.7256C135.161 60.4506 127.725 68.5822 125.593 70.9455C125.248 76.0181 122.653 112.735 116.544 140.405C117.685 140.138 126.03 138.38 127.84 137.927C131.025 125.34 132.597 111.276 133.893 98.1522ZM136.141 58.0344C135.276 58.0919 134.47 58.0919 133.611 58.1494C126.359 58.4645 120.578 59.2753 116.953 59.5904L89.9697 90.4851L53.1962 72.2714C41.4225 75.4822 37.7287 76.945 36.3659 77.2854C36.5039 77.3567 91.2209 106.899 91.3543 106.97C91.4647 106.855 102.075 95.1967 136.141 58.0344ZM170.899 181.616C165.809 181.375 160.711 181.394 155.623 181.673C155.048 181.73 155.048 182.653 155.623 182.593C160.711 182.315 165.809 182.296 170.899 182.537C171.475 182.594 171.475 181.673 170.899 181.616ZM149.917 181.557C147.847 181.557 145.825 181.616 143.751 181.787C143.176 181.845 143.176 182.767 143.751 182.707C145.821 182.533 147.842 182.477 149.917 182.477C150.039 182.477 150.156 182.429 150.242 182.342C150.328 182.256 150.377 182.139 150.377 182.017C150.377 181.895 150.328 181.778 150.242 181.692C150.156 181.606 150.039 181.557 149.917 181.557ZM146.92 177.349C141.041 177.379 135.161 177.408 129.225 177.464C129.103 177.464 128.986 177.513 128.9 177.599C128.813 177.685 128.765 177.802 128.765 177.924C128.765 178.046 128.813 178.163 128.9 178.249C128.986 178.336 129.103 178.384 129.225 178.384C135.104 178.327 140.983 178.327 146.92 178.269C147.042 178.269 147.159 178.221 147.245 178.134C147.332 178.048 147.38 177.931 147.38 177.809C147.38 177.687 147.332 177.57 147.245 177.484C147.159 177.398 147.042 177.349 146.92 177.349ZM114.235 177.523C112.28 177.523 110.316 177.523 108.413 177.58C108.291 177.58 108.174 177.629 108.088 177.715C108.002 177.801 107.953 177.918 107.953 178.04C107.953 178.162 108.002 178.279 108.088 178.366C108.174 178.452 108.291 178.5 108.413 178.5C110.368 178.5 112.333 178.5 114.235 178.443C114.357 178.443 114.474 178.394 114.56 178.308C114.646 178.222 114.695 178.105 114.695 177.983C114.695 177.861 114.646 177.744 114.56 177.658C114.474 177.571 114.357 177.523 114.235 177.523ZM66.3947 192.509C64.1499 192.679 61.9557 192.739 59.7075 192.854C59.1325 192.854 59.1325 193.832 59.7075 193.774L66.3947 193.429C66.9697 193.432 66.9697 192.466 66.3947 192.509ZM163.52 178.214C163.642 178.214 163.759 178.166 163.846 178.079C163.932 177.993 163.98 177.876 163.98 177.754C163.98 177.632 163.932 177.515 163.846 177.429C163.759 177.342 163.642 177.294 163.52 177.294C159.89 177.237 156.201 177.294 152.569 177.352C152.447 177.352 152.33 177.4 152.244 177.486C152.157 177.573 152.109 177.69 152.109 177.812C152.109 177.934 152.157 178.051 152.244 178.137C152.33 178.223 152.447 178.272 152.569 178.272C156.201 178.214 159.832 178.214 163.52 178.214ZM70.2001 180.059L56.8854 179.714C56.7634 179.714 56.6464 179.762 56.5601 179.848C56.4738 179.935 56.4254 180.052 56.4254 180.174C56.4254 180.296 56.4738 180.413 56.5601 180.499C56.6464 180.585 56.7634 180.634 56.8854 180.634L70.2001 180.979C70.8349 181.038 70.8349 180.116 70.2001 180.059ZM63.0528 185.362L43.167 185.017C43.045 185.017 42.928 185.066 42.8418 185.152C42.7555 185.238 42.707 185.355 42.707 185.477C42.707 185.599 42.7555 185.716 42.8418 185.803C42.928 185.889 43.045 185.937 43.167 185.937L63.0528 186.282C63.1748 186.282 63.2918 186.234 63.3781 186.148C63.4644 186.061 63.5128 185.944 63.5128 185.822C63.5128 185.7 63.4644 185.583 63.3781 185.497C63.2918 185.411 63.1748 185.362 63.0528 185.362ZM209.225 192.682C204.476 192.183 199.693 192.106 194.93 192.452C194.355 192.509 194.355 193.432 194.93 193.372C199.692 193.017 204.477 193.094 209.225 193.602C209.805 193.662 209.805 192.743 209.225 192.682Z" fill="#BBBBBB"/>
<path d="M85.9364 78.8426C85.9364 77.2326 86.6851 75.2109 88.3514 74.5773C90.1385 73.9425 91.637 75.4421 92.1556 77.0555C92.3281 77.6305 93.2504 77.4005 93.0756 76.8255C92.8624 75.9918 92.4121 75.2377 91.7792 74.6546C91.1462 74.0715 90.3579 73.6843 89.5095 73.54C87.3728 73.31 85.0716 75.4122 85.0716 78.8426C84.9566 79.4763 85.9364 79.4763 85.9364 78.8426Z" fill="#7F7F7F"/>
<path d="M166.115 58.8993C164.759 59.0095 163.397 58.7645 162.164 58.1884C160.931 57.6123 159.869 56.7249 159.083 55.6137C160.538 55.8712 162.037 55.7117 163.406 55.1537C163.981 54.9237 163.693 54.0578 163.176 54.2337C162.054 54.7274 160.813 54.8872 159.603 54.6937C159.149 54.6014 158.705 54.4663 158.277 54.2901C158.047 54.1544 157.877 54.2418 157.628 54.3579C154.938 55.8994 152.59 57.9733 150.728 60.4529C147.118 65.3791 144.495 70.9577 143.005 76.8807C142.239 79.7085 141.624 82.5754 141.165 85.4689C140.82 85.0227 136.659 79.6959 136.266 79.3014C136.611 74.4599 137.531 57.3974 137.531 57.3974C137.531 56.9477 137.363 56.8868 137.012 56.8787C126.435 57.3534 115.891 58.3926 105.425 59.9918C105.473 59.7841 105.492 59.571 105.483 59.3581C105.483 58.4002 105.189 57.4653 104.639 56.6805C104.09 55.8957 103.312 55.2991 102.412 54.9716C101.512 54.6441 100.532 54.6017 99.6072 54.8501C98.682 55.0985 97.8557 55.6257 97.2406 56.3601C96.6792 57.0545 96.3224 57.8916 96.2103 58.7774C96.0982 59.6633 96.2351 60.5629 96.6058 61.3752C89.0687 62.6575 82.6494 63.9673 76.5475 65.2944C76.5592 64.3317 76.2729 63.3889 75.7278 62.5952C75.1827 61.8016 74.4054 61.196 73.5026 60.8615C72.5997 60.5269 71.6155 60.4798 70.6849 60.7266C69.7542 60.9735 68.9227 61.5021 68.3043 62.24C67.7394 62.9449 67.3857 63.7952 67.2839 64.6927C67.1822 65.5902 67.3366 66.4981 67.7293 67.3115C51.4798 71.3032 35.5155 76.1815 35.2199 76.477C35.1049 76.477 34.8025 76.592 34.8749 76.8807C34.8749 78.6666 35.9605 90.4426 36.4849 98.8986C34.4874 101.468 31.4123 105.297 31.5273 105.182C31.1391 102.602 30.6198 100.043 29.9713 97.5151C28.5823 91.6211 26.1206 86.033 22.7091 81.0299C20.671 78.1105 18.0386 75.6552 14.9845 73.8251C14.9404 73.7804 14.8833 73.7507 14.8214 73.7404C14.7594 73.7301 14.6958 73.7396 14.6395 73.7676C13.8502 74.155 12.9825 74.3565 12.1032 74.3565C11.2239 74.3565 10.3563 74.155 9.56688 73.7676C8.99188 73.5376 8.76188 74.4576 9.33688 74.6876C10.7267 75.2432 12.2434 75.4025 13.7184 75.1476C12.9357 76.2657 11.8762 77.1615 10.6436 77.7475C9.41096 78.3335 8.04737 78.5896 6.68613 78.4907C6.11113 78.4332 6.11113 79.4107 6.68613 79.4107C8.24495 79.5082 9.80183 79.1918 11.1988 78.4934C12.5959 77.795 13.7833 76.7395 14.6407 75.434C14.8117 76.2097 14.8125 77.0132 14.6432 77.7892C14.4738 78.5653 14.1383 79.2954 13.6597 79.9293C12.8849 80.882 11.9238 81.6666 10.8353 82.2351C10.7286 82.2961 10.6504 82.397 10.6181 82.5156C10.5857 82.6342 10.6018 82.7608 10.6628 82.8676C10.7238 82.9743 10.8247 83.0525 10.9434 83.0848C11.062 83.1172 11.1886 83.1011 11.2953 83.0401C14.4003 81.2944 16.2944 78.7402 15.5607 75.258C28.3832 83.4771 30.3451 105.288 30.6636 105.923C30.6636 106.759 31.2547 106.999 31.5273 106.673C31.7032 106.454 36.5424 100.337 36.5424 100.216C36.6965 101.826 40.7503 157.049 40.7503 156.934C40.7531 157.004 40.7708 157.073 40.8024 157.135C40.8339 157.197 40.8784 157.252 40.9329 157.296C40.9874 157.339 41.0506 157.371 41.1183 157.388C41.186 157.405 41.2566 157.407 41.3253 157.394C42.0751 157.221 73.8346 150.305 75.3906 149.96C75.3906 150.093 76.0806 184.208 76.0806 184.083C66.7966 188.302 70.3432 186.746 69.5095 187.079C68.9908 187.309 69.452 188.114 69.9695 187.884C70.0902 187.829 76.7119 184.819 76.8281 184.771C76.8973 184.729 76.9546 184.67 76.9948 184.599C77.035 184.528 77.0568 184.449 77.0581 184.368C77.0581 183.666 76.421 151.043 76.3681 149.784C78.6163 149.265 98.0697 145.057 99.2232 144.77V180.219C99.2344 180.332 99.2829 180.439 99.3611 180.522C99.4393 180.605 99.5428 180.66 99.6556 180.679L105.881 182.234C105.998 182.253 106.118 182.227 106.217 182.161C106.316 182.095 106.387 181.995 106.416 181.88C106.445 181.764 106.429 181.642 106.373 181.538C106.316 181.433 106.223 181.354 106.111 181.314C104.156 180.796 102.191 180.335 100.232 179.874C100.232 179.874 100.117 145.923 100.059 144.54C100.756 144.376 128.13 138.518 128.13 138.372C128.211 138.347 128.285 138.303 128.345 138.243C128.405 138.182 128.45 138.109 128.475 138.027C132.739 122.863 134.938 95.9017 136.142 80.272C137.583 82.0591 140.868 86.267 141.098 86.612C141.386 86.957 141.847 86.612 141.903 86.267C141.903 82.8906 145.798 62.539 157.061 55.3711C156.509 58.2288 157.783 61.2073 161.385 63.0945C161.492 63.1555 161.619 63.1716 161.737 63.1392C161.856 63.1069 161.957 63.0287 162.018 62.922C162.079 62.8152 162.095 62.6886 162.063 62.57C162.03 62.4514 161.952 62.3505 161.845 62.2895C158.295 60.3345 157.475 57.6987 158.042 55.4297C160.063 57.9597 162.079 59.5939 165.996 59.4076C166.749 59.7629 166.75 58.8498 166.115 58.8993ZM103.345 56.5993C102.195 56.4256 100.808 57.4641 100.001 59.0775C99.4198 60.2402 99.1599 62.1561 100.116 63.1117C94.2943 61.5201 98.4722 52.94 103.345 56.5935V56.5993ZM68.8747 63.4521C69.153 63.0002 69.5239 62.6122 69.9629 62.3138C70.4019 62.0154 70.8991 61.8133 71.4218 61.7208C71.9444 61.6282 72.4808 61.6473 72.9956 61.7769C73.5103 61.9064 73.9918 62.1434 74.4085 62.4723C72.4707 62.1814 70.1109 65.3059 70.6043 67.775C70.6893 68.2212 70.8872 68.6381 71.1793 68.9859C70.6128 68.8469 70.0869 68.5768 69.644 68.1973C69.2011 67.8178 68.8535 67.3396 68.6293 66.8011C68.405 66.2627 68.3104 65.6791 68.353 65.0974C68.3957 64.5157 68.5743 63.9521 68.8747 63.4521ZM68.4722 68.35C69.0203 69.0375 69.752 69.5557 70.5825 69.8445C71.413 70.1333 72.3083 70.181 73.1647 69.9819C74.0212 69.7829 74.8037 69.3453 75.4217 68.7198C76.0397 68.0944 76.4679 67.3067 76.6567 66.4479C77.3697 66.3329 85.7176 64.3514 97.3498 62.4125C97.8547 63.0724 98.5285 63.5837 99.2999 63.8923C100.071 64.2009 100.912 64.2954 101.733 64.1658C102.553 64.0362 103.324 63.6874 103.963 63.1561C104.601 62.6248 105.085 61.9309 105.362 61.1475C113.896 59.8745 130.104 58.0931 136.143 58.0931C135.986 58.2633 91.54 106.897 91.4078 107.083C89.6828 106.163 38.5515 78.493 36.4194 77.3982C36.547 77.3706 46.2369 73.525 68.4722 68.35ZM131.473 118.958C130.656 125.367 129.443 131.72 127.841 137.979C126.893 138.216 42.0682 156.654 41.9003 156.654C41.9003 156.202 36.0295 78.3803 36.0203 78.2641C94.5553 109.621 91.1272 108.465 91.816 108.007C93.311 106.334 135.047 60.5679 136.603 58.8383C136.182 69.4574 133.785 102.337 131.473 118.96V118.958ZM186.462 178.791C183.73 179.57 180.836 179.57 178.104 178.791C178.104 184.498 173.492 185.42 171.418 185.535C171.203 185.554 171.001 185.65 170.851 185.805C170.7 185.96 170.609 186.164 170.595 186.379C170.581 186.595 170.645 186.809 170.775 186.981C170.905 187.154 171.092 187.275 171.303 187.322C176.606 188.472 186.231 184.613 186.231 184.613L186.462 178.791ZM193.552 181.327C193.552 187.033 188.94 187.956 186.866 188.071C186.651 188.09 186.449 188.186 186.298 188.341C186.148 188.496 186.057 188.699 186.043 188.915C186.029 189.131 186.093 189.344 186.223 189.517C186.353 189.69 186.54 189.811 186.751 189.858C192.055 191.008 201.68 187.148 201.68 187.148L202.025 181.327C199.259 182.141 196.318 182.141 193.552 181.327Z" fill="#7F7F7F"/>
<path d="M193.033 38.5515C192.336 38.0198 191.537 37.637 190.685 37.4267C189.834 37.2165 188.948 37.1834 188.084 37.3294C187.219 37.4753 186.394 37.7973 185.658 38.2754C184.923 38.7535 184.294 39.3774 183.81 40.1086C183.465 40.6273 184.27 41.0884 184.615 40.5686C186.225 38.0892 190.264 37.1681 192.568 39.3577C194.316 41.0183 194.12 44.7121 192.742 45.8138C192.009 46.2867 191.184 46.6002 190.321 46.7338C189.512 47.032 188.848 47.6271 188.462 48.3981C188.076 49.1691 187.999 50.0581 188.246 50.8841C188.419 51.4591 189.341 51.2291 189.166 50.6541C189.058 50.2733 189.038 49.873 189.108 49.4834C189.178 49.0939 189.336 48.7254 189.569 48.4059C190.636 47.019 192.591 47.9171 194.006 45.8759C194.65 44.7118 194.902 43.3718 194.727 42.0532C194.552 40.7347 193.958 39.5072 193.033 38.5515Z" fill="#BBBBBB"/>
<path d="M189.056 53.7107C189.056 53.8635 189.117 54.0101 189.225 54.1182C189.333 54.2263 189.48 54.2871 189.633 54.2871C189.785 54.2871 189.932 54.2263 190.04 54.1182C190.148 54.0101 190.209 53.8635 190.209 53.7107C190.209 53.5578 190.148 53.4112 190.04 53.3031C189.932 53.195 189.785 53.1343 189.633 53.1343C189.48 53.1343 189.333 53.195 189.225 53.3031C189.117 53.4112 189.056 53.5578 189.056 53.7107Z" fill="#BBBBBB"/>
<path d="M224.158 137.235C223.738 135.15 222.54 131.869 220.066 131.7C217.191 131.504 216.715 133.13 215.743 134.987C215.628 135.217 214.417 137.407 215.053 137.517C215.918 137.69 217.59 135.729 217.59 135.729C217.36 136.018 217.638 137.632 217.647 137.978C217.687 139.143 217.841 140.302 218.107 141.437C218.236 142.012 218.567 143.277 219.318 142.762C220.123 142.187 219.893 139.937 219.893 139.187C219.956 140.15 220.583 142.789 221.449 143.223C222.86 143.9 222.447 139.935 222.159 139.175C222.421 139.806 223.424 141.783 224.158 141.841C225.426 141.958 224.29 137.864 224.158 137.235Z" fill="#E8E8E8"/>
<path d="M196.894 90.3702H196.779C194.134 102.77 192.803 120.105 197.183 131.986C201.413 131.334 205.51 130 209.313 128.036L209.805 129.047C210.035 128.99 210.265 128.99 210.44 128.932C214.128 127.951 217.875 126.108 220.181 123.111C216.003 106.399 202.762 92.4011 196.894 90.3702Z" fill="#E8E8E8"/>
<path d="M220.47 124.204C217.757 127.114 214.18 129.075 210.267 129.797C210.671 130.602 211.132 131.407 211.593 132.217C214.737 132.217 218.679 129.651 221.104 127.663C220.931 126.271 220.633 125.189 220.47 124.204Z" fill="#E8E8E8"/>
<path d="M221.968 127.03C217.444 104.95 207.258 97.3131 201.217 92.6763C201.157 92.6429 201.091 92.6224 201.023 92.6159C200.955 92.6095 200.886 92.6174 200.821 92.639C200.756 92.6607 200.697 92.6956 200.646 92.7416C200.595 92.7877 200.555 92.8437 200.527 92.9063C196.777 103.968 204.723 121.672 210.268 131.928C211.017 133.423 210.958 133.193 211.878 133.193C213.38 133.019 214.841 132.591 216.2 131.928C218.231 130.909 220.144 129.672 221.907 128.239C222.198 127.895 222.038 127.373 221.968 127.03ZM206.924 122.995C203.947 116.24 198.59 100.685 201.218 93.7723C210.486 101.777 217.349 110.776 220.182 123.052C217.231 126.797 211.366 128.875 209.806 128.875C208.762 126.957 207.8 124.995 206.924 122.995ZM220.47 124.205C220.7 125.102 221.089 127.54 221.104 127.664C218.689 129.638 214.716 132.218 211.593 132.218C211.133 131.413 210.729 130.608 210.268 129.797C214.151 128.995 217.704 127.047 220.469 124.205H220.47Z" fill="#7F7F7F"/>
<path d="M161.908 91.6385C161.908 91.2647 161.793 88.7566 161.158 88.9291C160.293 89.2177 159.717 91.8685 159.717 91.8685C159.776 91.466 158.737 90.1435 158.567 89.8514C157.947 88.8083 157.233 87.8244 156.434 86.912C156.023 86.452 155.108 85.417 154.647 86.2783C154.256 87.0603 155.15 88.6301 155.682 89.4765C155.207 88.8199 154.647 88.229 154.018 87.7193C153.614 87.3743 153.039 86.8648 152.522 86.9143C150.854 87.0638 153.328 90.6035 153.903 91.0646C153.384 90.661 151.419 89.2062 150.674 89.5075C149.454 90.0043 152.514 93.2542 152.974 93.7729C154.415 95.445 157.124 97.9807 159.546 96.8284C162.049 95.5738 161.902 94.3778 161.908 91.6385Z" fill="#E8E8E8"/>
<path d="M192.63 73.7126C192.481 73.7126 192.337 73.7565 192.213 73.8389C192.09 73.9213 191.994 74.0384 191.937 74.1754C191.88 74.3124 191.865 74.4632 191.894 74.6086C191.923 74.7541 191.995 74.8877 192.1 74.9925C192.204 75.0974 192.338 75.1688 192.484 75.1978C192.629 75.2267 192.78 75.2118 192.917 75.1551C193.054 75.0983 193.171 75.0022 193.253 74.8789C193.336 74.7556 193.38 74.6107 193.38 74.4624C193.376 74.2646 193.296 74.0759 193.156 73.9361C193.016 73.7962 192.828 73.7161 192.63 73.7126ZM185.305 71.5218C185.157 71.5218 185.012 71.5658 184.889 71.6482C184.766 71.7306 184.669 71.8477 184.613 71.9847C184.556 72.1217 184.541 72.2724 184.57 72.4179C184.599 72.5633 184.67 72.6969 184.775 72.8018C184.88 72.9067 185.014 72.9781 185.159 73.007C185.305 73.0359 185.455 73.0211 185.592 72.9643C185.729 72.9076 185.846 72.8115 185.929 72.6882C186.011 72.5649 186.055 72.4199 186.055 72.2716C186.052 72.0739 185.972 71.8852 185.832 71.7453C185.692 71.6055 185.503 71.5253 185.305 71.5218ZM195.281 73.3664C194.4 72.2877 193.516 71.393 193.441 71.2343C193.347 71.1515 193.226 71.1074 193.101 71.1111C192.977 71.1148 192.858 71.1659 192.77 71.254C192.682 71.3422 192.631 71.4607 192.627 71.5853C192.624 71.7098 192.668 71.8311 192.751 71.9243C192.772 71.9519 194.579 74.0277 194.591 74.0576C194.684 74.1404 194.805 74.1844 194.93 74.1808C195.054 74.1771 195.173 74.126 195.261 74.0378C195.349 73.9497 195.4 73.8312 195.404 73.7066C195.407 73.582 195.363 73.4607 195.281 73.3676V73.3664ZM185.305 71.1757C185.42 71.1205 187.731 70.0257 187.9 70.0257C188.007 69.9535 188.083 69.8429 188.111 69.7165C188.14 69.5902 188.118 69.4578 188.052 69.3468C187.985 69.2357 187.878 69.1545 187.753 69.1199C187.629 69.0853 187.495 69.1 187.381 69.1609C184.757 70.2902 184.917 70.3109 184.787 70.3109C184.678 70.3847 184.601 70.4958 184.569 70.623C184.537 70.7502 184.553 70.8847 184.614 71.0009C184.69 71.1068 184.801 71.1825 184.928 71.2144C185.054 71.2464 185.188 71.2327 185.305 71.1757ZM192.86 80.11C191.02 78.7921 188.74 78.0826 187.442 79.9375C187.354 80.0851 187.278 80.2388 187.212 80.3975C186.982 80.9725 187.962 81.2623 188.132 80.6275C188.208 80.4178 188.339 80.2324 188.511 80.0908C188.683 79.9492 188.89 79.8565 189.111 79.8225C189.863 79.8225 190.248 79.6592 192.224 80.9173C192.611 81.206 193.489 80.5608 192.86 80.11Z" fill="#7F7F7F"/>
<path d="M189.516 71.7527C188.251 70.7741 186.462 74.5185 186.173 75.3258L189.516 76.2458C190.02 76.3999 190.525 72.529 189.516 71.7527Z" fill="#BBBBBB"/>
</svg>
