<svg width="231" height="230" viewBox="0 0 231 230" fill="none" xmlns="http://www.w3.org/2000/svg">
<path d="M197.831 159.735C196.673 160.034 195.475 160.151 194.281 160.08C192.023 163.344 189.422 166.358 186.523 169.07C191.436 166.828 195.317 165.302 201.022 164.93L201.289 164.845C202.798 162.477 200.46 159.547 197.831 159.735Z" fill="#BBBBBB"/>
<path d="M184.349 142.937C176.23 151.149 170.265 161.883 167.882 170.574C167.233 172.699 167.084 174.945 167.444 177.138C167.862 178.842 168.681 180.421 169.833 181.745C170.986 183.069 172.437 184.098 174.068 184.747C178.029 186.457 182.595 186.006 186.61 184.73C192.76 182.775 197.555 179.13 204.355 176.483C206.22 175.791 208.141 175.263 210.097 174.905C211.683 174.524 213.532 173.77 213.578 171.86C213.627 169.756 211.762 168.357 210.095 167.463C202.269 163.259 193.19 166.658 185.797 170.108C185.425 170.281 185.107 169.745 185.452 169.558C185.039 169.09 186.199 168.964 190.012 164.517C194.738 158.906 198.566 152.598 201.361 145.815C195.875 143.975 190.135 143.003 184.349 142.937Z" fill="#BBBBBB"/>
<path d="M51.8568 176.687C49.7362 175.086 46.76 174.937 44.2173 175.183C38.9009 175.71 29.6733 177.635 27.923 182.695C27.9079 182.744 27.9047 182.795 27.9136 182.845C27.9225 182.895 27.9432 182.943 27.974 182.983C28.0048 183.024 28.0448 183.056 28.0908 183.078C28.1367 183.1 28.1872 183.111 28.2381 183.109C37.0356 182.638 45.9964 182.518 54.9077 182.777C54.9941 182.775 55.0764 182.74 55.1374 182.679C55.1984 182.618 55.2331 182.535 55.2343 182.449C55.0808 181.313 54.7032 180.219 54.1234 179.229C53.5436 178.24 52.7731 177.376 51.8568 176.687Z" fill="#1B1B1B"/>
<path d="M175.201 142.678C171.415 145.272 167.378 147.479 163.152 149.268C161.327 152.204 157.675 158.198 156.213 161.343C156.352 166.211 156.434 170.144 156.405 174.996C156.843 175.56 157.351 176.065 157.917 176.499C158.619 177.021 159.43 177.38 160.289 177.548C161.147 177.717 162.033 177.691 162.881 177.472C164.175 177.322 165.459 177.098 166.727 176.799C166.437 173.839 166.859 170.851 167.958 168.087C171.284 158.705 176.558 150.133 183.433 142.935C180.589 142.886 177.683 142.878 175.201 142.678Z" fill="#BBBBBB"/>
<path d="M88.5786 176.525C87.3702 176.76 86.2603 177.352 85.3931 178.226C84.8578 178.653 84.431 179.201 84.1472 179.825C83.8635 180.449 83.7308 181.13 83.7601 181.815C83.7662 181.881 83.7981 181.942 83.8488 181.985C83.8996 182.028 83.9651 182.05 84.0315 182.045C84.1465 182.081 89.387 182.052 89.2709 182.052C89.0075 180.214 88.7767 178.371 88.5786 176.525Z" fill="#1B1B1B"/>
<path d="M179.554 139.136C179.59 139.198 179.605 139.271 179.596 139.343C179.587 139.414 179.554 139.481 179.503 139.532C178.111 140.633 176.678 141.682 175.204 142.677C180.913 143.137 185.232 142.629 191.189 143.435C196.427 144.275 201.556 145.689 206.484 147.652C208.791 135.335 210.891 121.777 204.726 110.188C202.65 105.556 198.996 102.195 194.209 99.4174C186.787 95.1106 177.325 94.8174 168.883 94.8174C168.116 94.8174 165.813 95.5844 165.813 96.3515C165.045 102.491 165.813 107.863 167.348 114.003C168 117.796 167.13 121.693 164.927 124.848C166.595 125.717 168.226 126.656 169.815 127.663C169.891 127.709 169.945 127.784 169.965 127.87C169.986 127.956 169.971 128.047 169.925 128.123C169.845 128.243 168.692 129.628 168.18 130.206C167.728 130.716 167.247 131.191 166.77 131.671C171.768 132.601 176.287 135.24 179.554 139.136Z" fill="#7F7F7F"/>
<path d="M224.568 175.911C224.035 174.11 223.241 172.396 222.213 170.825C221.252 169.081 219.943 167.555 218.366 166.34C217.622 165.815 216.73 165.541 215.82 165.558C214.91 165.576 214.029 165.883 213.306 166.436C213.24 166.487 213.193 166.559 213.172 166.639C213.151 166.72 213.158 166.805 213.191 166.881L215.764 172.537C216.256 173.445 216.661 174.399 216.971 175.384C217.075 175.753 217.042 176.147 216.878 176.494C216.714 176.84 216.43 177.115 216.079 177.268C214.834 177.921 213.319 177.803 212.235 178.801C211.983 179.032 211.798 179.326 211.697 179.653C211.597 179.98 211.585 180.328 211.663 180.66C211.742 180.993 211.908 181.299 212.144 181.546C212.38 181.794 212.677 181.974 213.006 182.068C213.89 182.36 214.825 182.467 215.752 182.382C216.723 182.358 217.69 182.257 218.644 182.077C220.306 181.857 221.89 181.238 223.26 180.273C223.886 179.758 224.345 179.068 224.578 178.291C224.811 177.514 224.807 176.686 224.568 175.911Z" fill="#1B1B1B"/>
<path d="M161.296 106.976C163.152 107.49 165.095 107.616 167.002 107.345C169.135 107.107 171.096 106.059 172.479 104.418C173.818 102.735 174.162 100.006 172.341 98.5112C170.693 97.1576 168.136 97.4083 166.157 97.5521C164.243 97.6924 162.338 97.9373 160.438 98.2018C161.241 99.5017 161.737 100.968 161.885 102.489C162.034 104.01 161.832 105.545 161.296 106.976Z" fill="#E8E8E8"/>
<path d="M145.192 103.317C144.652 104.398 144.031 105.436 143.333 106.422C143.727 107.425 144.333 108.331 145.11 109.079C145.887 109.827 146.815 110.398 147.833 110.754C149.33 111.148 150.87 111.36 152.418 111.385C152.435 110.981 152.473 110.577 152.533 110.177C152.553 109.457 152.84 108.77 153.338 108.25C154.214 107.604 155.281 108.381 155.823 109.085C156.194 109.568 156.531 110.081 156.858 110.596C162.353 108.439 162.765 100.159 157.991 96.4306C155.44 96.3497 152.913 96.9439 150.666 98.1531C148.418 99.3623 146.53 101.144 145.192 103.317Z" fill="#E8E8E8"/>
<path d="M145.192 103.317C146.581 101.062 148.56 99.2299 150.916 98.0204C153.272 96.8108 155.915 96.2698 158.557 96.4562C159.084 95.069 159.132 93.5455 158.695 92.1275C158.257 90.7096 157.359 89.4783 156.142 88.6293C149.921 84.0293 137.568 88.0865 134.043 93.7882C133.641 94.4499 133.389 95.1924 133.307 95.9625C133.225 96.7326 133.314 97.5114 133.567 98.2433C133.843 98.9674 134.349 99.5812 135.007 99.9911C135.665 100.401 136.439 100.584 137.21 100.513C135.237 101.476 134.607 104.135 136.492 105.327C136.809 105.495 137.166 105.574 137.525 105.556C137.884 105.538 138.231 105.424 138.531 105.225C138.339 105.702 138.334 106.233 138.517 106.714C138.7 107.194 139.057 107.588 139.517 107.817C140.155 108.016 140.839 108.018 141.478 107.822C142.117 107.626 142.682 107.242 143.099 106.72C143.903 105.654 144.603 104.515 145.192 103.317Z" fill="#BBBBBB"/>
<path d="M169.155 128.025C167.741 127.138 166.293 126.305 164.814 125.53C164.604 125.807 164.394 126.085 164.169 126.348C154.394 137.662 137.51 131.768 136.295 126.218C136.033 125.032 136.24 123.602 135.75 122.875C135.321 122.405 133.91 123.167 133.605 124.566C133.221 126.231 133.089 127.944 133.212 129.648C133.082 130.081 131.348 130.974 129.576 130.38C126.406 129.218 126.329 127.62 123.259 126.442C123.021 126.342 122.761 126.309 122.506 126.345C122.251 126.382 122.01 126.487 121.81 126.649C121.39 127.132 121.721 127.905 122.018 128.365C122.725 129.256 123.66 129.938 124.724 130.338C125.069 130.494 124.818 131.028 124.473 130.935L122.237 130.304C121.695 130.151 120.824 129.804 120.407 130.368C119.876 131.083 120.453 132.158 121.043 132.634C122.728 133.826 124.718 134.511 126.779 134.61C126.856 134.613 126.93 134.643 126.988 134.694C127.045 134.746 127.083 134.817 127.093 134.894C127.103 134.971 127.086 135.049 127.044 135.114C127.003 135.179 126.939 135.228 126.865 135.251C125.669 135.627 125.178 135.136 123.539 134.766C123.277 134.702 123.001 134.727 122.755 134.836C122.508 134.945 122.304 135.132 122.174 135.369C121.989 135.876 122.519 136.261 122.886 136.496C124.789 137.648 126.75 138.699 128.763 139.645C131.704 140.778 134.829 141.36 137.981 141.36C140.998 138.057 144.755 136.885 149.366 137.051C153.099 137.144 156.812 136.494 160.291 135.139C163.822 133.592 166.88 131.137 169.155 128.025Z" fill="#E8E8E8"/>
<path d="M166.154 132.204C161.841 135.832 156.359 137.776 150.723 137.675C148.465 137.754 146.264 137.433 143.323 138.496C139.198 139.999 136.528 143.655 134.921 147.592C135.381 147.388 138.141 146.127 138.371 146.044C138.729 145.946 139.226 146.341 139.543 146.496C146.297 149.795 152.509 152.106 159.624 149.924C166.553 147.423 173.03 143.817 178.805 139.245C175.544 135.487 171.066 132.994 166.154 132.204Z" fill="#E8E8E8"/>
<path d="M111.403 118.209L117.548 120.494C117.941 120.642 118.112 120.011 117.722 119.865L111.576 117.58C111.182 117.433 111.015 118.064 111.403 118.209ZM120.604 103.814C123.864 111.422 123.322 113.002 124.093 112.759C124.172 112.735 124.238 112.681 124.279 112.609C124.32 112.537 124.332 112.452 124.312 112.372C123.458 109.344 122.408 106.376 121.167 103.485C121.003 103.099 120.445 103.432 120.604 103.814ZM136.344 112.86C135.181 114.499 134.235 116.28 133.527 118.161C133.38 118.553 134.01 118.725 134.158 118.335C134.849 116.509 135.773 114.779 136.907 113.19C137.151 112.846 136.584 112.52 136.344 112.86ZM131.914 63.7097C133.907 62.7302 135.5 61.0922 136.423 59.0729C136.607 58.698 136.046 58.3668 135.86 58.744C134.978 60.656 133.469 62.2093 131.584 63.1462C131.204 63.3256 131.538 63.8926 131.914 63.7097Z" fill="#1B1B1B"/>
<path d="M30.2539 79.3718L34.3295 71.7439C28.4404 67.8224 26.5095 60.3738 26.4773 53.2404C26.4129 49.3304 26.6866 47.4904 26.5923 45.985C26.5371 45.1271 26.0173 43.7529 24.8961 44.1933C24.4182 44.476 24.0183 44.8734 23.7326 45.3494C23.4469 45.8255 23.2843 46.3653 23.2596 46.92C23.1941 47.779 22.9146 51.06 22.1096 51.3555C21.582 51.4343 21.0501 51.4819 20.5169 51.4981C12.9372 51.8017 9.80232 47.7388 8.13137 48.8405C7.71392 49.1613 7.82202 49.7858 8.03247 50.1998C8.39157 50.7125 8.87676 51.124 9.44122 51.3946C10.6767 52.1435 11.9824 52.7698 13.3397 53.2645C13.4137 53.2875 13.4771 53.3359 13.5188 53.4012C13.5604 53.4665 13.5776 53.5445 13.5673 53.6212C13.5569 53.698 13.5198 53.7686 13.4623 53.8206C13.4049 53.8725 13.3309 53.9025 13.2535 53.9051C9.36417 54.0603 7.26542 51.988 6.92847 53.4186C6.45237 55.4748 11.4572 57.5586 13.5582 57.9738C13.9446 58.0416 13.8135 58.589 13.472 58.6143C12.3128 58.6508 11.1525 58.6147 9.99782 58.5062C9.38717 58.4752 7.15157 58.1612 7.31832 59.2238C7.41262 59.8264 8.10032 60.1438 8.58332 60.3934C11.5793 61.8011 14.9718 62.1227 18.1789 61.303C18.7654 61.1547 18.4526 61.9447 20.2949 66.018C22.5844 71.152 25.9861 75.7132 30.2539 79.3718Z" fill="#E8E8E8"/>
<path d="M54.5128 93.1499C44.3249 115.115 40.9554 139.871 42.5332 164.035C42.5697 166.067 42.9316 168.081 43.605 169.999C43.9489 170.956 44.5006 171.826 45.2203 172.545C45.9401 173.264 46.8101 173.815 47.768 174.158C50.543 174.982 53.5652 173.272 55.1809 170.87C56.7967 168.469 57.3245 165.522 57.8156 162.671L65.6609 117.024C65.7759 116.334 66.0875 115.473 66.7856 115.463C67.5595 115.454 67.8378 116.47 67.8781 117.241C68.3657 130.274 70.1259 143.229 73.1336 155.919C74.0179 159.419 75.0978 162.999 77.43 165.753C79.4344 168.118 84.4542 169.259 87.987 168.766C87.5186 159.604 87.9272 150.419 89.2071 141.335C89.4199 139.904 84.9993 115.182 83.3191 102.465L82.6521 102.244C72.6584 101.619 62.9822 98.4916 54.5128 93.1499Z" fill="#BBBBBB"/>
<path d="M125.78 63.1687L129.621 65.4687C129.696 65.5075 129.782 65.5162 129.863 65.4929C129.944 65.4697 130.012 65.4163 130.055 65.3438C130.097 65.2713 130.11 65.1853 130.09 65.1036C130.071 65.022 130.021 64.9509 129.95 64.9052L126.11 62.6052C126.036 62.5637 125.948 62.553 125.866 62.5755C125.783 62.598 125.713 62.6518 125.67 62.7255C125.627 62.7992 125.614 62.8868 125.635 62.9697C125.655 63.0525 125.708 63.1239 125.78 63.1687Z" fill="#1B1B1B"/>
<path d="M78.7688 66.1485C81.8152 67.402 84.9443 68.4841 88.0263 69.6491C89.1349 70.0688 90.2815 70.4368 91.3671 70.9141C93.5733 72.0396 95.4392 73.7335 96.7721 75.8211C97.2807 76.7296 97.7302 77.6699 98.1176 78.6363C106.77 74.0156 112.391 61.2219 107.387 54.7163C106.928 54.2835 106.532 53.7883 106.211 53.2455C105.994 52.5559 105.87 51.8404 105.842 51.118C104.837 45.0586 89.5892 40.0446 79.3346 49.3401C78.5981 50.157 77.7349 50.8502 76.7782 51.3928C75.7581 51.7627 74.6872 51.9729 73.603 52.0161C67.0848 52.8142 61.2693 61.8187 59.1326 68.6336C61.8452 67.2729 64.6933 66.2009 67.6299 65.4355C71.3158 64.3984 75.2452 64.6499 78.7688 66.1485Z" fill="#BBBBBB"/>
<path d="M115.682 85.2228C111.752 88.866 107.511 88.8798 104.329 86.8834C101.986 85.4815 99.9405 83.3184 98.1189 78.6344C97.1736 75.8994 95.3876 73.5334 93.0163 71.8747C92.1058 73.7202 90.6714 75.2562 88.8924 76.2907C87.6537 76.9407 86.2456 77.1957 84.8576 77.0214C83.4696 76.847 82.1683 76.2517 81.1288 75.3155C79.4038 73.5767 78.5873 70.351 80.0593 66.6583C78.7933 66.0931 77.49 65.6154 76.1585 65.2289C61.9341 61.8778 49.2197 79.8339 34.8862 72.0875L30.7749 79.7821C38.2062 85.4298 47.8696 83.9739 56.2025 79.5027C56.2649 79.4687 56.3366 79.4558 56.4069 79.4659C56.4772 79.4761 56.5423 79.5087 56.5925 79.5589C56.6428 79.6091 56.6754 79.6743 56.6855 79.7446C56.6956 79.8148 56.6827 79.8865 56.6488 79.9489C54.5869 83.2059 52.8127 86.6363 51.3461 90.2011C61.8029 97.8907 74.4981 101.928 87.4756 101.692C89.6595 98.5075 91.4787 95.0878 92.899 91.4972C92.9784 91.2925 93.2739 91.1441 93.4441 91.3534C100.39 99.7208 112.948 101.063 121.09 92.7449C120.076 89.7554 118.193 87.1364 115.682 85.2228Z" fill="#7F7F7F"/>
<path d="M121.551 92.1146C124.651 88.4264 126.789 84.0278 127.775 79.3117C128.518 76.0526 128.859 72.7222 129.348 69.4217C129.367 69.353 129.408 69.2925 129.465 69.2493C129.522 69.2061 129.591 69.1827 129.662 69.1825C132.654 69.4052 135.625 68.5448 138.035 66.7583C139.218 65.922 140.209 64.8451 140.946 63.5981C141.259 62.8046 140.492 62.4193 139.818 62.6712C139.189 63.0209 138.609 63.452 138.093 63.9534C136.891 64.8148 135.463 65.3057 133.985 65.3656C133.597 65.384 133.567 64.8389 133.898 64.7251C135.65 64.0616 137.086 62.7586 137.917 61.0784C138.355 60.2976 139.122 59.2304 138.788 58.3058C138.757 58.176 138.696 58.0555 138.609 57.9543C138.522 57.853 138.412 57.774 138.288 57.7236C138.165 57.6733 138.031 57.6531 137.898 57.6647C137.765 57.6764 137.636 57.7195 137.523 57.7906C137.083 58.0909 136.727 58.4986 136.488 58.9751C136.316 59.3132 135.798 59.0717 135.892 58.7232C136.076 58.0401 136.436 56.7326 135.674 56.2634C134.737 55.6884 133.795 56.736 133.412 57.4755C132.697 58.8555 132.251 60.7564 130.345 62.2871C128.589 63.6901 125.7 63.5923 124.643 61.5522C124.229 60.7472 124.158 59.8054 123.723 59.0073C123.392 58.3955 122.721 57.8205 121.998 58.2241C121.377 58.5691 121.794 59.189 122.172 60.554C124.587 69.2825 122.005 79.0058 116.168 84.7983C118.606 86.6905 120.47 89.2237 121.551 92.1146Z" fill="#E8E8E8"/>
<path d="M21.246 51.6705L19.3278 55.1205C19.1231 55.4873 19.6866 55.8174 19.8901 55.4505L21.8095 52.0005C22.013 51.6348 21.4495 51.3025 21.246 51.6705ZM58.4703 95.8005C57.7799 96.9053 56.7886 97.7902 55.6128 98.3514C54.4371 98.9126 53.1257 99.1268 51.8325 98.9688C51.4174 98.917 51.4208 99.5691 51.8325 99.622C53.2401 99.7783 54.6632 99.5334 55.9376 98.9157C57.212 98.2979 58.2857 97.3324 59.035 96.1306C59.2546 95.7707 58.69 95.4498 58.4703 95.8005Z" fill="#1B1B1B"/>
<path d="M140.971 62.1004C139.094 61.3265 138.699 63.3654 136.054 64.3004C137.552 63.0593 138.693 61.4435 139.363 59.6176C139.561 59.1676 139.584 58.6598 139.427 58.1938C139.27 57.7278 138.944 57.3374 138.514 57.0991C138.21 56.9951 137.881 56.9832 137.57 57.065C137.259 57.1469 136.979 57.3187 136.765 57.5591C136.893 56.1331 135.97 55.3672 134.988 55.481C133.033 55.6547 132.573 57.9593 131.822 59.391C130.031 62.7939 127.442 63.1032 125.901 62.0567C124.474 61.0079 125.167 58.8827 123.339 57.6511C123.047 57.4919 122.715 57.4215 122.384 57.4484C122.053 57.4754 121.737 57.5986 121.475 57.8029C120.51 58.6079 121.378 59.3933 122 62.6179C122.76 66.5159 122.57 70.5393 121.447 74.3486C120.325 78.1579 118.303 81.6413 115.551 84.5047C114.227 85.7967 112.615 86.7567 110.849 87.3061C109.145 87.6532 107.377 87.5057 105.754 86.8809C104.131 86.2562 102.72 85.1803 101.689 83.7802C98.6667 79.8472 99.175 77.9911 96.4322 74.2352C94.581 71.9012 92.0429 70.2079 89.1769 69.3949C76.4878 64.5959 77.394 64.8915 76.0324 64.5384C62.1933 61.6726 50.6772 76.9826 37.5695 72.6195C31.6148 70.6104 28.4661 64.6626 27.5243 58.4549C27.1337 55.4399 27.0133 52.396 27.1643 49.3596C27.2922 48.026 27.2922 46.6832 27.1643 45.3495C27.1186 44.8144 26.8633 44.319 26.4541 43.9712C26.0449 43.6233 25.5148 43.4512 24.9793 43.4923C23.5993 43.7441 22.8852 45.3323 22.6609 46.5593C22.4056 47.9497 22.5287 49.4688 21.8157 50.7327C19.8565 50.9614 17.873 50.8686 15.9438 50.4578C14.2193 50.0673 12.5506 49.4619 10.9769 48.6558C9.90856 48.2084 7.91791 47.3183 7.29691 48.903C7.19049 49.2424 7.17418 49.6037 7.24959 49.9513C7.32499 50.2989 7.48952 50.6209 7.72701 50.8856C8.80581 51.8281 10.0304 52.5893 11.353 53.1396C10.2882 52.9332 9.23641 52.6644 8.20311 52.3346C7.90988 52.2147 7.58547 52.1938 7.27927 52.2751C6.97307 52.3565 6.70184 52.5357 6.50686 52.7854C5.86631 53.7526 6.56321 55.0026 7.30151 55.6938C10.1236 58.1651 12.8756 57.9938 9.89476 57.8477C8.96671 57.8029 7.20951 57.5499 6.75986 58.6228C5.85826 60.7791 10.87 62.1499 13.2056 62.335C14.8311 62.4564 16.4655 62.3402 18.0575 61.99C19.8011 67.3739 22.6407 72.3384 26.3973 76.5709C30.1601 80.8558 34.5025 83.5203 40.0926 84.024C45.449 84.3828 50.7956 83.1944 55.4957 80.6005C53.605 83.6665 51.9803 86.8886 50.6393 90.2317C50.6117 90.2947 50.6097 90.3659 50.6338 90.4303C50.6578 90.4947 50.706 90.5472 50.7681 90.5767L50.7899 90.5986C56.5311 94.852 62.9897 98.0394 69.8581 100.009C67.082 108.328 67.3821 107.254 67.205 108.105C67.1524 108.328 67.1834 108.562 67.2922 108.763C67.401 108.964 67.5799 109.118 67.795 109.196C68.0246 109.227 68.2581 109.189 68.4668 109.088C68.6754 108.988 68.85 108.828 68.9691 108.629C69.3071 108.115 69.5776 107.559 69.7741 106.976C70.6472 104.896 71.2964 102.73 71.7107 100.513C73.9295 101.081 76.1797 101.519 78.4497 101.824C78.6532 103.018 79.234 104.115 80.1067 104.955C80.9795 105.795 82.0983 106.333 83.2992 106.49C83.7155 106.54 83.7121 105.887 83.2992 105.838C82.2845 105.69 81.34 105.232 80.5942 104.528C79.8484 103.824 79.3374 102.908 79.1305 101.903C81.6969 102.227 84.2822 102.378 86.8688 102.355C87.1816 102.355 87.6669 102.449 87.9038 102.214C88.2168 101.83 88.4911 101.417 88.7227 100.98C90.5406 98.2093 92.0784 95.265 93.3134 92.1902C95.0343 94.2472 97.1709 95.9169 99.583 97.0893C101.995 98.2618 104.628 98.9106 107.309 98.993C109.989 99.0755 112.657 98.5897 115.137 97.5677C117.616 96.5456 119.851 95.0105 121.695 93.063C121.752 92.9998 121.782 92.9176 121.779 92.833C128.396 85.4339 128.939 76.7043 129.939 69.8388C132.992 69.9929 136.004 69.0765 138.454 67.2478C139.723 66.3467 140.778 65.1785 141.547 63.8254C141.696 63.5197 141.719 63.1678 141.611 62.8452C141.503 62.5226 141.273 62.2552 140.971 62.1004ZM30.2544 79.3723C25.9882 75.7122 22.5882 71.1504 20.3 66.0162C18.414 61.8486 18.7774 61.154 18.184 61.3012C14.9768 62.1209 11.5844 61.7993 8.58836 60.3915C8.10536 60.1443 7.41766 59.8246 7.32336 59.222C7.15661 58.1617 9.39336 58.4733 10.0029 58.5044C11.1575 58.6128 12.3178 58.6489 13.477 58.6125C13.822 58.5872 13.9497 58.0375 13.5633 57.9719C11.4841 57.5591 6.45396 55.4776 6.93351 53.4168C7.26356 52.0011 9.40026 54.0573 13.2585 53.9032C13.3359 53.9006 13.4099 53.8707 13.4674 53.8188C13.5248 53.7668 13.562 53.6962 13.5723 53.6194C13.5827 53.5427 13.5655 53.4647 13.5238 53.3994C13.4822 53.3341 13.4187 53.2857 13.3448 53.2627C11.9874 52.768 10.6817 52.1417 9.44626 51.3928C8.88206 51.1218 8.39696 50.7104 8.03751 50.1979C7.82706 49.7839 7.71896 49.1629 8.13641 48.8386C9.80161 47.7392 12.9423 51.7999 20.5219 51.4963C21.0552 51.4803 21.587 51.4326 22.1147 51.3537C22.9197 51.065 23.2003 47.7772 23.2647 46.9181C23.2896 46.3635 23.4522 45.8238 23.7379 45.3478C24.0236 44.8717 24.4234 44.4744 24.9011 44.1915C26.0247 43.751 26.5422 45.1264 26.5974 45.9832C26.8147 49.4631 24.3227 65.0594 34.3346 71.7432C33.0937 74.0604 30.3763 79.1446 30.2544 79.3723ZM68.715 107.766C68.4459 108.56 67.5972 108.994 67.91 107.919C67.9755 107.689 67.6248 108.774 70.4837 100.193C70.6815 100.247 70.8793 100.308 71.0771 100.359C70.5985 102.916 69.8051 105.404 68.715 107.766ZM93.4399 91.3553C93.2686 91.146 92.9731 91.2943 92.8949 91.499C91.4745 95.0896 89.6553 98.5093 87.4714 101.694C74.4917 101.945 61.7919 97.9059 51.3419 90.203C53.803 84.0609 57.3446 78.4095 61.7989 73.5165C62.0726 73.2002 61.6126 72.7368 61.3389 73.0565C59.4599 75.069 57.7415 77.2258 56.1995 79.5068C47.8908 83.9665 38.2216 85.4443 30.7719 79.7863L34.8843 72.0893C36.452 72.9874 38.179 73.5732 39.9696 73.8143C39.8546 73.9075 39.942 73.7281 38.9208 77.2252C38.8979 77.3085 38.909 77.3974 38.9517 77.4725C38.9944 77.5475 39.0652 77.6026 39.1485 77.6254C39.2317 77.6483 39.3207 77.6372 39.3957 77.5945C39.4708 77.5518 39.5258 77.481 39.5487 77.3977L40.1766 75.2507L40.7941 77.8715C40.8907 78.2798 41.5198 78.1015 41.4232 77.6979C41.023 75.997 40.5768 74.0179 40.4537 73.8638C54.3193 75.3553 65.4835 60.2604 78.7682 66.1484C81.8146 67.4019 84.9449 68.4841 88.0257 69.649C89.1343 70.0688 90.2809 70.4368 91.3665 70.914C93.5728 72.0395 95.4386 73.7335 96.7715 75.8211C98.2987 78.4994 98.3033 79.9335 100.614 83.4548C103.75 87.8662 109.329 89.8108 113.858 86.6575C114.503 86.2293 115.113 85.7502 115.681 85.2246C118.191 87.1391 120.073 89.7584 121.086 92.7479C112.854 100.977 100.462 99.8089 93.4434 91.3553H93.4399ZM140.945 63.5954C140.208 64.8416 139.216 65.9183 138.035 66.7556C135.625 68.5419 132.653 69.4023 129.661 69.1798C129.59 69.1796 129.521 69.2029 129.464 69.2462C129.407 69.2894 129.366 69.3502 129.348 69.419C128.36 76.104 127.881 84.9371 121.551 92.1131C120.473 89.2238 118.614 86.6905 116.181 84.7957C118.59 82.2582 120.444 79.2465 121.625 75.9528C122.805 72.6591 123.286 69.1555 123.037 65.6654C122.692 60.0983 121.011 58.7861 122.012 58.2249C122.729 57.8213 123.4 58.3963 123.737 59.0081C124.444 60.3156 124.213 62.1959 126.243 62.9767C128.676 63.8427 130.893 62.4259 132.156 60.15C132.655 59.2921 132.968 58.3537 133.421 57.4763C133.804 56.738 134.744 55.6834 135.683 56.2642C136.444 56.7345 136.083 58.0409 135.9 58.724C135.808 59.069 136.326 59.3128 136.497 58.9759C136.736 58.4997 137.092 58.0921 137.532 57.7914C137.626 57.7324 137.73 57.6924 137.839 57.6737C137.948 57.655 138.059 57.658 138.167 57.6825C138.275 57.7069 138.377 57.7524 138.467 57.8163C138.557 57.8802 138.634 57.9612 138.692 58.0547C139.274 58.9885 138.391 60.2478 137.925 61.0792C137.093 62.7596 135.654 64.0615 133.899 64.7224C133.569 64.8374 133.599 65.3814 133.987 65.363C135.464 65.3037 136.893 64.8127 138.094 63.9508C138.611 63.4496 139.191 63.0185 139.819 62.6685C140.491 62.4167 141.259 62.8019 140.945 63.5954Z" fill="#1B1B1B"/>
<path d="M110.135 88.619C110.081 88.2154 109.452 88.205 109.483 88.6018C108.908 88.45 109.282 89.5597 107.89 91.6171C107.66 91.9621 108.22 92.2933 108.454 91.9448C108.975 91.1672 109.373 90.3138 109.634 89.4148C109.762 89.9601 109.951 90.489 110.198 90.9915C110.385 91.3675 110.947 91.0375 110.762 90.6626C110.442 90.0206 110.23 89.3301 110.135 88.619ZM95.0392 81.9674C94.6423 84.8033 93.9247 87.585 92.9002 90.2589C92.7495 90.6522 93.3808 90.8224 93.5292 90.4326C94.5527 87.7583 95.2702 84.9767 95.6682 82.1411C95.7257 81.7305 95.0966 81.5523 95.0392 81.9674ZM45.358 136.791L43.633 134.872C43.3513 134.56 42.8913 135.022 43.173 135.332C43.7495 135.971 44.3245 136.611 44.898 137.25C45.1775 137.565 45.6375 137.103 45.358 136.791ZM44.1678 136.888H43.395C43.3118 136.893 43.2337 136.929 43.1766 136.99C43.1195 137.051 43.0877 137.131 43.0877 137.214C43.0877 137.297 43.1195 137.377 43.1766 137.438C43.2337 137.499 43.3118 137.535 43.395 137.54H44.1632C44.2463 137.536 44.3247 137.5 44.3823 137.44C44.4398 137.379 44.4722 137.299 44.4728 137.216C44.4734 137.133 44.4421 137.053 44.3854 136.991C44.3287 136.93 44.2509 136.893 44.1678 136.888Z" fill="#1B1B1B"/>
<path d="M81.1292 75.3171C82.1687 76.2531 83.47 76.8484 84.858 77.0227C86.246 77.1971 87.654 76.9422 88.8928 76.2923C91.463 74.716 93.3268 72.2097 94.0966 69.2946C99.2221 69.4188 103.757 65.7296 103.763 60.4833C103.688 56.7826 101.066 53.6902 98.5885 50.9383C98.2855 50.5346 97.8762 50.2232 97.4063 50.039C95.3616 49.464 93.7872 53.604 85.3842 56.1616C85.2793 55.9354 85.1308 55.7322 84.9473 55.5636C84.7638 55.3949 84.5488 55.2641 84.3146 55.1786C84.0805 55.0932 83.8317 55.0547 83.5827 55.0655C83.3337 55.0763 83.0892 55.1362 82.8634 55.2416C82.3872 55.5096 82.0184 55.9341 81.8195 56.443C81.6206 56.9519 81.6038 57.5139 81.772 58.0338C81.9437 58.5166 82.2264 58.9523 82.5973 59.3059C82.9683 59.6595 83.4171 59.9209 83.9076 60.0693C82.3735 62.1053 81.0829 64.3137 80.062 66.6496C78.5785 70.3963 79.4226 73.6002 81.1292 75.3171Z" fill="#E8E8E8"/>
<path d="M73.5321 137.204C72.6512 136.296 71.737 135.417 70.84 134.524C70.7774 134.472 70.6975 134.445 70.6161 134.448C70.5346 134.452 70.4575 134.486 70.3999 134.544C70.3422 134.601 70.3082 134.678 70.3045 134.76C70.3009 134.841 70.3278 134.921 70.38 134.984L73.0721 137.664C73.1347 137.717 73.2146 137.744 73.296 137.74C73.3775 137.736 73.4546 137.702 73.5122 137.645C73.5699 137.587 73.6039 137.51 73.6076 137.428C73.6112 137.347 73.5843 137.267 73.5321 137.204ZM72.182 138.009C71.8314 137.966 71.4953 137.843 71.1989 137.651C70.9025 137.459 70.6536 137.202 70.4708 136.9C70.2489 136.544 69.6854 136.871 69.9073 137.23C70.1516 137.627 70.4837 137.962 70.8781 138.211C71.2724 138.459 71.7185 138.614 72.182 138.663C72.5983 138.712 72.5949 138.06 72.182 138.009ZM90.3578 56.6711C91.4003 56.0603 92.5835 55.7302 93.7917 55.7132C93.907 55.7132 94.0175 55.6674 94.0991 55.5858C94.1806 55.5043 94.2264 55.3937 94.2264 55.2785C94.2264 55.1632 94.1806 55.0526 94.0991 54.9711C94.0175 54.8895 93.907 54.8438 93.7917 54.8438C92.4273 54.8479 91.0893 55.2198 89.9185 55.9202C89.8264 55.982 89.7614 56.0766 89.7367 56.1847C89.712 56.2928 89.7294 56.4063 89.7854 56.502C89.8413 56.5977 89.9317 56.6685 90.0381 56.6999C90.1444 56.7313 90.2587 56.721 90.3578 56.6711ZM101.142 57.8648C101.25 58.284 101.443 58.6767 101.708 59.0183C101.974 59.36 102.307 59.6434 102.687 59.8508C103.176 60.1234 103.616 59.3724 103.125 59.0999C102.844 58.9474 102.597 58.7385 102.4 58.4862C102.204 58.2339 102.061 57.9436 101.982 57.6337C101.947 57.5271 101.873 57.4381 101.774 57.385C101.675 57.332 101.56 57.319 101.452 57.3487C101.344 57.3785 101.251 57.4487 101.194 57.5448C101.136 57.6409 101.118 57.7555 101.142 57.8648ZM96.6805 64.153C96.4069 63.9098 96.0627 63.7603 95.6982 63.7264C95.3337 63.6925 94.968 63.7759 94.6542 63.9644C94.5022 64.0961 94.3803 64.2589 94.2967 64.4419C94.2132 64.6248 94.17 64.8236 94.17 65.0247C94.17 65.2258 94.2132 65.4246 94.2967 65.6075C94.3803 65.7905 94.5022 65.9533 94.6542 66.085C96.0123 67.3673 98.1019 65.3111 96.6805 64.153ZM91.9643 60.3545C92.078 60.3545 92.1892 60.3883 92.2838 60.4515C92.3783 60.5146 92.452 60.6044 92.4956 60.7095C92.5391 60.8146 92.5505 60.9302 92.5283 61.0417C92.5061 61.1533 92.4513 61.2557 92.3709 61.3361C92.2905 61.4166 92.188 61.4713 92.0765 61.4935C91.965 61.5157 91.8493 61.5043 91.7443 61.4608C91.6392 61.4173 91.5494 61.3436 91.4862 61.249C91.423 61.1544 91.3893 61.0433 91.3893 60.9295C91.3893 60.777 91.4499 60.6308 91.5577 60.523C91.6656 60.4151 91.8118 60.3545 91.9643 60.3545ZM101.085 62.1808C101.199 62.1808 101.31 62.2145 101.404 62.2777C101.499 62.3408 101.573 62.4306 101.616 62.5357C101.66 62.6408 101.671 62.7564 101.649 62.8679C101.627 62.9795 101.572 63.0819 101.492 63.1623C101.411 63.2428 101.309 63.2975 101.197 63.3197C101.086 63.3419 100.97 63.3305 100.865 63.287C100.76 63.2435 100.67 63.1698 100.607 63.0752C100.544 62.9806 100.51 62.8695 100.51 62.7558C100.51 62.6033 100.571 62.457 100.678 62.3492C100.786 62.2413 100.932 62.1808 101.085 62.1808ZM83.6728 58.3444L85.4473 59.1493C85.8268 59.3218 86.158 58.7595 85.7762 58.5859L84.0017 57.7809C83.6222 57.6153 83.2899 58.1707 83.6728 58.3444ZM83.6728 61.4103C84.1299 63.0678 84.9979 64.5832 86.1964 65.816C87.3949 67.0489 88.8852 67.9594 90.5291 68.4632C90.9305 68.5886 91.1041 67.9584 90.7028 67.8342C89.1746 67.3475 87.7904 66.4904 86.6737 65.3393C85.5569 64.1882 84.7421 62.7788 84.3019 61.2366C84.276 61.1565 84.2201 61.0896 84.1461 61.0496C84.072 61.0097 83.9853 60.9999 83.9042 61.0223C83.8231 61.0447 83.7538 61.0976 83.7106 61.1698C83.6675 61.2421 83.654 61.3282 83.6728 61.4103ZM17.3742 70.4366C18.4985 72.5788 20.0111 74.4935 21.835 76.0831C22.1501 76.3579 22.6136 75.898 22.295 75.6231C20.5127 74.0713 19.0347 72.2014 17.9365 70.1089C17.7433 69.7351 17.1752 70.0652 17.3742 70.4366ZM15.3352 71.8752C16.2008 74.7307 17.6201 77.3879 19.512 79.6953C19.7788 80.0207 20.2377 79.5561 19.972 79.2353C18.1559 77.0113 16.7938 74.4524 15.9631 71.7039C15.935 71.6271 15.879 71.5636 15.8063 71.526C15.7336 71.4885 15.6494 71.4796 15.5705 71.5011C15.4915 71.5227 15.4235 71.5731 15.38 71.6424C15.3364 71.7116 15.3204 71.7948 15.3352 71.8752ZM190.042 94.0012C194.282 94.7743 198.215 96.7352 201.385 99.6558C201.693 99.9398 202.155 99.4799 201.845 99.1958C198.596 96.1947 194.564 94.1755 190.215 93.3722C189.805 93.2974 189.629 93.9253 190.042 94.0012ZM192.612 91.6713C195.391 92.3355 197.96 93.6822 200.087 95.5894C200.399 95.8677 200.862 95.4088 200.547 95.1294C198.341 93.1445 195.675 91.7406 192.791 91.0446C192.378 90.9445 192.205 91.5736 192.612 91.6713ZM210.704 167.076C209.781 166.558 208.809 166.134 207.802 165.811C207.713 164.557 207.445 163.323 207.008 162.146C206.645 160.95 205.997 159.861 205.119 158.973C204.761 158.63 204.295 158.422 203.801 158.387C203.306 158.351 202.815 158.49 202.413 158.778C202.122 159.008 201.705 159.545 201.976 159.913C202.405 160.345 202.765 160.839 203.044 161.38C203.589 162.511 203.849 163.758 203.801 165.013C203.202 164.956 202.602 164.925 202.001 164.919C202.253 164.356 202.375 163.744 202.358 163.127C202.341 162.511 202.186 161.906 201.903 161.357C201.62 160.809 201.218 160.331 200.726 159.959C200.234 159.588 199.664 159.331 199.059 159.21C197.334 158.873 196.775 159.545 194.702 159.473C197.572 155.25 200.009 150.749 201.976 146.036C201.769 145.97 201.565 145.902 201.356 145.835C198.562 152.618 194.733 158.927 190.006 164.536C186.171 169.012 185.049 169.088 185.441 169.573C185.389 169.605 185.348 169.653 185.326 169.709L182.266 171.502C182.191 171.546 182.136 171.617 182.114 171.701C182.092 171.785 182.104 171.874 182.148 171.949C182.192 172.024 182.263 172.078 182.347 172.1C182.431 172.122 182.52 172.11 182.595 172.067C183.395 171.597 184.196 171.128 184.997 170.659L184.185 172.749C184.032 173.141 184.664 173.311 184.814 172.922C185.115 172.148 185.416 171.372 185.718 170.599C185.743 170.545 185.748 170.485 185.733 170.427C185.719 170.37 185.685 170.319 185.638 170.283L186.315 169.887C191.692 167.409 197.917 164.971 203.87 165.632C204.954 165.747 213.691 166.847 213.573 171.888C213.507 174.719 209.663 174.946 207.424 175.527C199.846 177.51 193.849 182.457 186.609 184.758C182.596 186.035 178.029 186.483 174.067 184.776C172.437 184.127 170.985 183.098 169.833 181.774C168.681 180.45 167.862 178.87 167.443 177.166C167.084 174.973 167.234 172.728 167.882 170.603C170.326 161.687 176.439 150.952 184.35 142.965L183.439 142.946C176.562 150.144 171.288 158.716 167.963 168.098C166.864 170.863 166.442 173.85 166.733 176.81C164.699 177.319 162.612 177.585 160.516 177.603C159.692 177.464 158.904 177.162 158.199 176.714C157.494 176.266 156.886 175.681 156.41 174.995C156.445 170.365 156.355 166.161 156.218 161.396C157.736 158.102 161.278 152.311 163.157 149.277C169.017 146.776 174.515 143.502 179.505 139.541C179.555 139.49 179.588 139.424 179.597 139.352C179.606 139.28 179.591 139.208 179.555 139.146C176.306 135.226 171.779 132.579 166.77 131.671C167.932 130.626 168.974 129.454 169.875 128.177C174.33 122.147 176.27 115.127 175.294 105.835C175.251 105.422 174.598 105.417 174.641 105.835C175.363 111.937 174.383 118.12 171.811 123.701C171.72 122.712 171.544 121.732 171.286 120.772C171.612 120.463 171.42 118.54 171.111 117.627C170.975 117.232 170.344 117.397 170.481 117.8C170.633 118.244 170.73 118.705 170.77 119.172C170.597 118.712 170.409 118.252 170.195 117.799C170.014 117.421 169.451 117.751 169.632 118.128C170.567 120.082 171.104 122.202 171.212 124.366C171.214 124.415 171.227 124.463 171.25 124.506C171.274 124.549 171.307 124.586 171.348 124.614C170.823 125.623 170.225 126.592 169.557 127.512C166.826 125.804 164.78 124.772 164.896 124.836C164.821 124.795 164.733 124.784 164.65 124.805C164.567 124.826 164.496 124.879 164.45 124.951C162.889 127.05 160.888 128.781 158.586 130.024C156.285 131.266 153.739 131.989 151.128 132.142C149.33 130.409 140.931 122.322 138.538 120.004C135.203 116.752 131.658 113.146 130.925 108.333C130.749 107.203 130.772 106.051 130.993 104.929C131.03 104.745 130.904 104.489 130.678 104.516C122.593 105.407 114.813 108.113 107.92 112.43C101.026 116.748 95.1968 122.567 90.8661 129.452L90.8454 129.487L90.8304 129.51C90.825 129.521 90.8208 129.532 90.8178 129.544C90.8097 129.558 90.8028 129.573 90.7971 129.588L90.789 129.622V129.648C86.6825 147.469 86.0403 165.913 88.8973 183.976C88.9201 184.06 88.9752 184.131 89.0504 184.174C89.1257 184.217 89.2149 184.229 89.2986 184.206C110.911 177.788 133.846 177.257 155.732 182.67C155.817 182.691 155.908 182.678 155.983 182.633C156.059 182.588 156.114 182.515 156.135 182.429C156.315 181.712 156.397 176.721 156.408 175.976C157.113 176.838 158.034 177.499 159.077 177.889C160.121 178.279 161.249 178.384 162.347 178.195C163.861 178.036 165.363 177.777 166.844 177.422C167.92 182.407 172.656 185.713 177.52 186.38C186.991 187.679 195.416 180.91 203.353 177.606C209.429 175.039 212.093 176.128 213.831 173.402C215.074 170.865 213.212 168.333 210.704 167.076ZM201.29 164.846C197.254 165.179 193.298 166.155 189.571 167.738C188.546 168.161 187.534 168.613 186.524 169.074C189.423 166.363 192.024 163.349 194.282 160.085C196.582 160.386 197.602 159.273 199.329 159.978C199.811 160.125 200.253 160.377 200.624 160.718C200.995 161.058 201.285 161.476 201.473 161.943C201.661 162.41 201.743 162.913 201.711 163.415C201.679 163.918 201.535 164.406 201.29 164.846ZM178.808 139.246C173.033 143.818 166.555 147.425 159.627 149.925C155.197 151.283 150.321 151.232 143.426 148.277C140.645 147.108 139.457 146.415 138.705 146.062C138.408 145.959 138.536 145.971 134.921 147.592C137.135 142.168 140.901 138.246 146.701 137.756C149.188 137.544 152.911 138.114 158.46 136.503C161.293 135.614 163.912 134.151 166.154 132.204C171.067 132.995 175.546 135.487 178.808 139.246ZM152.672 132.659C157.498 131.968 161.86 129.407 164.815 125.528C166.293 126.301 167.739 127.138 169.156 128.024C168.168 129.275 167.097 130.459 165.951 131.566C164.242 133.014 162.34 134.216 160.298 135.138C156.819 136.493 153.106 137.143 149.373 137.05C144.801 136.886 141.035 138.023 137.988 141.359C134.837 141.348 131.714 140.766 128.77 139.644C126.759 138.695 124.797 137.644 122.894 136.495C122.524 136.265 121.997 135.874 122.182 135.368C122.311 135.131 122.515 134.943 122.762 134.834C123.009 134.725 123.285 134.701 123.547 134.765C125.181 135.13 125.674 135.624 126.873 135.249C126.947 135.226 127.01 135.178 127.052 135.113C127.093 135.047 127.11 134.969 127.1 134.893C127.09 134.816 127.053 134.745 126.995 134.693C126.938 134.641 126.864 134.612 126.786 134.609C124.725 134.51 122.735 133.825 121.05 132.633C120.461 132.156 119.883 131.083 120.414 130.367C120.832 129.803 121.702 130.149 122.244 130.303L124.481 130.934C124.826 131.03 125.077 130.493 124.731 130.337C123.667 129.937 122.732 129.255 122.025 128.364C121.729 127.904 121.397 127.13 121.817 126.647C122.018 126.486 122.258 126.381 122.513 126.345C122.768 126.308 123.028 126.341 123.266 126.44C126.347 127.63 126.406 129.213 129.583 130.379C130.573 130.704 131.651 130.628 132.586 130.168L132.477 133.699C132.463 134.12 133.115 134.119 133.129 133.699C133.244 129.811 133.306 129.941 133.102 129.823C133.5 129.459 132.786 127.448 133.613 124.565C133.923 123.159 135.32 122.394 135.757 122.874C136.252 123.601 136.037 125.008 136.303 126.217C137.172 130.201 145.452 133.675 152.672 132.659ZM155.52 181.946C133.754 176.63 110.97 177.155 89.4723 183.469C86.6995 165.618 87.36 147.401 91.4181 129.797C95.6526 123.057 101.343 117.351 108.071 113.098C114.799 108.845 122.394 106.152 130.298 105.217C129.945 108.254 130.678 111.317 132.368 113.864C134.496 117.298 136.635 119.055 150.244 132.185C147.095 132.225 143.981 131.529 141.149 130.151C139.635 129.455 137.563 127.986 137.003 126.321C136.858 125.737 136.78 125.138 136.773 124.536C136.713 123.667 136.658 122.129 135.471 122.078C134.052 122.015 133.222 123.483 132.902 124.657C132.55 126.211 132.438 127.81 132.57 129.398C132.036 129.729 131.422 129.908 130.794 129.917C130.167 129.926 129.548 129.765 129.005 129.45C127.804 128.732 126.67 127.908 125.616 126.989C125.162 126.567 124.629 126.239 124.048 126.024C123.467 125.808 122.849 125.709 122.23 125.732C120.663 125.962 120.474 128.147 122.324 129.642C121.85 129.467 121.345 129.395 120.841 129.432C120.619 129.478 120.409 129.571 120.225 129.704C120.041 129.837 119.887 130.008 119.774 130.205C119.661 130.401 119.59 130.62 119.567 130.846C119.545 131.072 119.57 131.3 119.641 131.515C119.91 132.911 121.241 133.7 122.531 134.236C122.191 134.34 121.901 134.566 121.717 134.87C121.533 135.174 121.467 135.536 121.533 135.885C121.844 136.805 122.647 137.123 123.942 137.861C125.774 138.945 127.68 139.897 129.648 140.708C132.191 141.427 134.807 141.857 137.447 141.991C135.951 143.852 134.787 145.958 134.008 148.216C134.046 148.428 127.763 150.794 114.156 158.566C105.914 153.469 102.311 142.797 97.5844 135.538C96.0724 133.272 94.191 131.275 92.0184 129.632C91.6814 129.38 91.356 129.947 91.6883 130.194C93.6638 131.69 95.3869 133.493 96.792 135.535C101.865 143.109 105.013 153.391 113.495 158.941C99.0644 167.272 99.5578 174.202 89.8552 182.25C89.5298 182.516 89.9944 182.974 90.3152 182.71C99.4819 175.217 99.4566 167.737 114.113 159.335C122.393 164.234 147.578 174.811 154.593 181.475C154.896 181.766 155.357 181.306 155.053 181.015C150.871 177.012 147.08 175.323 141.962 172.815C139.347 171.535 114.967 159.06 114.781 158.956C122.435 154.599 130.571 150.428 138.672 146.79C143.827 149.339 149.421 151.781 155.211 151.414C155.411 156.285 156.08 175.107 155.52 181.946ZM155.865 151.364C158.018 151.099 160.124 150.536 162.122 149.691C160.249 152.728 157.773 156.828 156.179 160.022C156.087 157.021 156.001 154.827 155.865 151.364Z" fill="#1B1B1B"/>
<path d="M195.8 151.841C195.135 150.842 194.726 149.694 194.61 148.5C194.494 147.305 194.674 146.1 195.134 144.992C195.295 144.604 194.665 144.435 194.505 144.818C194.021 146.011 193.834 147.304 193.962 148.585C194.089 149.866 194.527 151.097 195.237 152.171C195.469 152.519 196.034 152.192 195.8 151.841ZM180.09 139.088C189.308 133.15 192.259 121.527 192.925 110.568C192.952 110.149 192.298 110.15 192.272 110.568C192.05 114.848 191.355 119.09 190.202 123.218C188.573 129.266 185.051 135.15 179.761 138.528C179.407 138.748 179.736 139.315 180.09 139.088ZM165.782 143.154L165.649 144.839C165.544 144.809 165.447 144.754 165.367 144.679C165.287 144.604 165.226 144.511 165.189 144.408C165.049 144.014 164.418 144.185 164.56 144.58C164.889 145.583 166.252 145.824 166.268 145.21L166.429 143.154C166.466 142.736 165.814 142.738 165.782 143.154ZM173.589 98.9447C172.3 96.923 169.679 96.7516 167.512 96.8252C165.005 96.9504 162.506 97.2107 160.027 97.6049C159.638 97.0643 159.185 96.5721 158.679 96.1387C158.639 96.2456 158.604 96.3514 158.557 96.4561C158.369 96.4388 158.179 96.4354 157.989 96.4273C162.589 99.967 162.513 108.368 156.856 110.593C156.533 110.075 156.188 109.571 155.821 109.082C155.28 108.378 154.211 107.6 153.336 108.247C152.838 108.767 152.551 109.453 152.531 110.173C152.472 110.574 152.434 110.977 152.416 111.382C150.868 111.357 149.329 111.145 147.831 110.751C146.814 110.395 145.885 109.824 145.108 109.076C144.331 108.328 143.725 107.422 143.331 106.419C143.199 106.618 143.038 106.797 142.855 106.951C143.608 108.699 144.951 110.128 146.65 110.986C148.59 111.714 150.649 112.076 152.721 112.054C152.807 112.053 152.89 112.018 152.951 111.958C153.012 111.897 153.047 111.814 153.048 111.728C153.051 111.341 153.076 110.954 153.121 110.57C153.128 109.964 153.302 109.372 153.623 108.859C154.232 108.169 155.159 109.274 155.501 109.751C156.484 111.125 156.448 111.399 156.805 111.307C157.719 110.995 158.562 110.505 159.286 109.866C160.01 109.226 160.6 108.449 161.022 107.58C162.824 108.089 164.707 108.249 166.569 108.05C172.215 107.654 175.875 102.523 173.589 98.9447ZM172.48 104.418C171.106 106.071 169.141 107.121 167.003 107.345C165.096 107.616 163.153 107.49 161.297 106.976C161.833 105.545 162.034 104.01 161.885 102.49C161.737 100.969 161.242 99.5019 160.439 98.2018C162.339 97.9373 164.244 97.6923 166.158 97.552C168.137 97.4083 170.696 97.1576 172.342 98.5111C174.163 100.006 173.842 102.755 172.48 104.42V104.418Z" fill="#1B1B1B"/>
<path d="M145.387 107.082C146.012 105.92 147.032 105.019 148.262 104.543C148.781 104.348 148.556 103.508 148.032 103.705C146.584 104.244 145.378 105.287 144.637 106.644C144.365 107.135 145.12 107.577 145.387 107.082ZM152.434 101.345C152.37 101.076 152.37 100.796 152.435 100.528C152.501 100.26 152.629 100.011 152.81 99.8021C152.991 99.5934 153.219 99.431 153.476 99.3284C153.732 99.2257 154.01 99.1858 154.285 99.212C154.559 99.2381 154.824 99.3296 155.057 99.4787C155.289 99.6279 155.483 99.8304 155.621 100.069C155.76 100.308 155.839 100.577 155.852 100.853C155.866 101.129 155.814 101.404 155.699 101.655C155.544 102.048 156.175 102.216 156.327 101.829C156.468 101.48 156.523 101.103 156.49 100.729C156.457 100.354 156.336 99.9928 156.136 99.6742C155.936 99.3555 155.664 99.0887 155.341 98.8954C155.019 98.7022 154.655 98.588 154.28 98.5622C153.905 98.5365 153.529 98.5999 153.183 98.7472C152.837 98.8946 152.531 99.1217 152.29 99.41C152.048 99.6984 151.879 100.04 151.794 100.406C151.71 100.773 151.714 101.154 151.805 101.519C151.895 101.928 152.53 101.754 152.434 101.345ZM148.147 108.348C148.261 108.348 148.372 108.382 148.467 108.445C148.561 108.509 148.635 108.598 148.679 108.703C148.722 108.809 148.733 108.924 148.711 109.036C148.689 109.147 148.634 109.25 148.554 109.33C148.473 109.41 148.371 109.465 148.259 109.487C148.148 109.51 148.032 109.498 147.927 109.455C147.822 109.411 147.732 109.338 147.669 109.243C147.606 109.148 147.572 109.037 147.572 108.923C147.572 108.771 147.633 108.625 147.741 108.517C147.849 108.409 147.995 108.348 148.147 108.348Z" fill="#1B1B1B"/>
</svg>
