<svg width="33" height="32" viewBox="0 0 33 32" fill="none" xmlns="http://www.w3.org/2000/svg">
<g clip-path="url(#clip0_258_4986)">
<path d="M16.4978 2.66675C17.9188 2.66662 19.3028 3.1206 20.4477 3.96246C21.5926 4.80432 22.4385 5.98999 22.862 7.34651C23.2856 8.70302 23.2646 10.1594 22.8021 11.5031C22.3396 12.8468 21.4598 14.0076 20.2911 14.8161L20.4871 15.3081L22.8271 14.2374C24.1191 13.6467 25.6538 14.1947 26.2551 15.4614C26.5271 16.0368 26.57 16.6942 26.3751 17.3001C26.1803 17.906 25.7622 18.4151 25.2058 18.7241L25.0084 18.8254L21.8311 20.2774V22.9707L23.7324 24.8707L23.8844 25.0374C24.3069 25.5379 24.526 26.1788 24.4984 26.8332C24.4708 27.4876 24.1984 28.1078 23.7353 28.5709C23.2721 29.0341 22.652 29.3064 21.9976 29.334C21.3432 29.3617 20.7023 29.1425 20.2018 28.7201L20.0351 28.5681L17.2631 25.7947L17.1111 25.6294C17.0328 25.5367 16.9611 25.4387 16.8964 25.3361H16.0978C16.0351 25.4361 15.9631 25.5361 15.8844 25.6294L15.7311 25.7961L12.9578 28.5681C12.4818 29.0462 11.8393 29.3217 11.1648 29.337C10.4903 29.3522 9.83604 29.106 9.33892 28.6499C8.8418 28.1938 8.54035 27.5631 8.49763 26.8898C8.45492 26.2164 8.67426 25.5527 9.10975 25.0374L9.26175 24.8707L11.1644 22.9694V20.2774L7.98708 18.8241L7.78975 18.7241C7.23331 18.4151 6.81525 17.906 6.62038 17.3001C6.42551 16.6942 6.46843 16.0368 6.74042 15.4614C7.31242 14.2587 8.72575 13.7041 9.97242 14.1574L10.1684 14.2374L12.5084 15.3081L12.7044 14.8161C11.8582 14.2304 11.159 13.4568 10.6616 12.5558C10.1643 11.6548 9.88231 10.6509 9.83775 9.62275V9.33341C9.83775 7.5653 10.5401 5.86961 11.7904 4.61937C13.0406 3.36913 14.7363 2.66675 16.5044 2.66675H16.4978Z" stroke="#1B1B1B" stroke-width="1.5" stroke-linecap="round" stroke-linejoin="round"/>
<path d="M16.5 21.3333H16.5133" stroke="#1B1B1B" stroke-width="1.5" stroke-linecap="round" stroke-linejoin="round"/>
<path d="M16.5 17.3333H16.5133" stroke="#1B1B1B" stroke-width="1.5" stroke-linecap="round" stroke-linejoin="round"/>
<path d="M13.8333 9.33325H13.8467" stroke="#1B1B1B" stroke-width="1.5" stroke-linecap="round" stroke-linejoin="round"/>
<path d="M19.1667 9.33325H19.18" stroke="#1B1B1B" stroke-width="1.5" stroke-linecap="round" stroke-linejoin="round"/>
<path d="M16.5 12H16.5133" stroke="#1B1B1B" stroke-width="1.5" stroke-linecap="round" stroke-linejoin="round"/>
</g>
<defs>
<clipPath id="clip0_258_4986">
<rect width="32" height="32" fill="white" transform="translate(0.5)"/>
</clipPath>
</defs>
</svg>
