<svg width="25" height="24" viewBox="0 0 25 24" fill="none" xmlns="http://www.w3.org/2000/svg">
<g id="Buildings" clip-path="url(#clip0_192_3188)">
<path id="Vector" d="M5.875 12H3.875L12.875 3L21.875 12H19.875" stroke="#000000" stroke-width="1.5" stroke-linecap="round" stroke-linejoin="round"/>
<path id="Vector_2" d="M5.875 12V19C5.875 19.5304 6.08571 20.0391 6.46079 20.4142C6.83586 20.7893 7.34457 21 7.875 21H17.875C18.4054 21 18.9141 20.7893 19.2892 20.4142C19.6643 20.0391 19.875 19.5304 19.875 19V12" stroke="#000000" stroke-width="1.5" stroke-linecap="round" stroke-linejoin="round"/>
<path id="Vector_3" d="M9.875 21V15C9.875 14.4696 10.0857 13.9609 10.4608 13.5858C10.8359 13.2107 11.3446 13 11.875 13H13.875C14.4054 13 14.9141 13.2107 15.2892 13.5858C15.6643 13.9609 15.875 14.4696 15.875 15V21" stroke="#000000" stroke-width="1.5" stroke-linecap="round" stroke-linejoin="round"/>
</g>
<defs>
<clipPath id="clip0_192_3188">
<rect width="24" height="24" fill="white" transform="translate(0.875)"/>
</clipPath>
</defs>
</svg>
