<svg width="33" height="32" viewBox="0 0 33 32" fill="none" xmlns="http://www.w3.org/2000/svg">
<g clip-path="url(#clip0_258_4971)">
<path d="M20.5 5.33337L28.5 8.00004V14.6667H24.5V25.3334C24.5 25.687 24.3595 26.0261 24.1095 26.2762C23.8594 26.5262 23.5203 26.6667 23.1667 26.6667H9.83333C9.47971 26.6667 9.14057 26.5262 8.89052 26.2762C8.64048 26.0261 8.5 25.687 8.5 25.3334V14.6667H4.5V8.00004L12.5 5.33337C12.5 6.39424 12.9214 7.41166 13.6716 8.1618C14.4217 8.91195 15.4391 9.33337 16.5 9.33337C17.5609 9.33337 18.5783 8.91195 19.3284 8.1618C20.0786 7.41166 20.5 6.39424 20.5 5.33337Z" stroke="#1B1B1B" stroke-width="1.5" stroke-linecap="round" stroke-linejoin="round"/>
</g>
<defs>
<clipPath id="clip0_258_4971">
<rect width="32" height="32" fill="white" transform="translate(0.5)"/>
</clipPath>
</defs>
</svg>
