<svg width="20" height="20" viewBox="0 0 20 20" fill="none" xmlns="http://www.w3.org/2000/svg">
<g clip-path="url(#clip0_194_8028)">
<path d="M3.33325 5.83341C3.33325 5.39139 3.50885 4.96746 3.82141 4.6549C4.13397 4.34234 4.55789 4.16675 4.99992 4.16675H14.9999C15.4419 4.16675 15.8659 4.34234 16.1784 4.6549C16.491 4.96746 16.6666 5.39139 16.6666 5.83341V15.8334C16.6666 16.2754 16.491 16.6994 16.1784 17.0119C15.8659 17.3245 15.4419 17.5001 14.9999 17.5001H4.99992C4.55789 17.5001 4.13397 17.3245 3.82141 17.0119C3.50885 16.6994 3.33325 16.2754 3.33325 15.8334V5.83341Z" stroke="#1B1B1B" stroke-width="1.5" stroke-linecap="round" stroke-linejoin="round"/>
<path d="M13.3333 2.5V5.83333" stroke="#1B1B1B" stroke-width="1.5" stroke-linecap="round" stroke-linejoin="round"/>
<path d="M6.66675 2.5V5.83333" stroke="#1B1B1B" stroke-width="1.5" stroke-linecap="round" stroke-linejoin="round"/>
<path d="M3.33325 9.16675H16.6666" stroke="#1B1B1B" stroke-width="1.5" stroke-linecap="round" stroke-linejoin="round"/>
<path d="M9.16675 13.3333C9.16675 13.5543 9.25455 13.7663 9.41083 13.9226C9.56711 14.0789 9.77907 14.1667 10.0001 14.1667C10.2211 14.1667 10.4331 14.0789 10.5893 13.9226C10.7456 13.7663 10.8334 13.5543 10.8334 13.3333C10.8334 13.1123 10.7456 12.9004 10.5893 12.7441C10.4331 12.5878 10.2211 12.5 10.0001 12.5C9.77907 12.5 9.56711 12.5878 9.41083 12.7441C9.25455 12.9004 9.16675 13.1123 9.16675 13.3333Z" stroke="#1B1B1B" stroke-width="1.5" stroke-linecap="round" stroke-linejoin="round"/>
</g>
<defs>
<clipPath id="clip0_194_8028">
<rect width="20" height="20" fill="white"/>
</clipPath>
</defs>
</svg>
