<svg width="25" height="24" viewBox="0 0 25 24" fill="none" xmlns="http://www.w3.org/2000/svg">
<g id="Document" clip-path="url(#clip0_192_3191)">
<path id="Vector" d="M9.625 5H7.625C7.09457 5 6.58586 5.21071 6.21079 5.58579C5.83571 5.96086 5.625 6.46957 5.625 7V19C5.625 19.5304 5.83571 20.0391 6.21079 20.4142C6.58586 20.7893 7.09457 21 7.625 21H17.625C18.1554 21 18.6641 20.7893 19.0392 20.4142C19.4143 20.0391 19.625 19.5304 19.625 19V7C19.625 6.46957 19.4143 5.96086 19.0392 5.58579C18.6641 5.21071 18.1554 5 17.625 5H15.625" stroke="#000000" stroke-width="1.5" stroke-linecap="round" stroke-linejoin="round"/>
<path id="Vector_2" d="M9.625 5C9.625 4.46957 9.83571 3.96086 10.2108 3.58579C10.5859 3.21071 11.0946 3 11.625 3H13.625C14.1554 3 14.6641 3.21071 15.0392 3.58579C15.4143 3.96086 15.625 4.46957 15.625 5C15.625 5.53043 15.4143 6.03914 15.0392 6.41421C14.6641 6.78929 14.1554 7 13.625 7H11.625C11.0946 7 10.5859 6.78929 10.2108 6.41421C9.83571 6.03914 9.625 5.53043 9.625 5Z" stroke="#000000" stroke-width="1.5" stroke-linecap="round" stroke-linejoin="round"/>
<path id="Vector_3" d="M9.625 12H15.625" stroke="#000000" stroke-width="1.5" stroke-linecap="round" stroke-linejoin="round"/>
<path id="Vector_4" d="M9.625 16H15.625" stroke="#000000" stroke-width="1.5" stroke-linecap="round" stroke-linejoin="round"/>
</g>
<defs>
<clipPath id="clip0_192_3191">
<rect width="24" height="24" fill="white" transform="translate(0.625)"/>
</clipPath>
</defs>
</svg>
