<svg width="16" height="17" viewBox="0 0 16 17" fill="none" xmlns="http://www.w3.org/2000/svg">
<g clip-path="url(#clip0_195_3662)">
<path d="M3.3335 5.16667C3.3335 5.87391 3.61445 6.55219 4.11454 7.05229C4.61464 7.55238 5.29292 7.83333 6.00016 7.83333C6.70741 7.83333 7.38568 7.55238 7.88578 7.05229C8.38588 6.55219 8.66683 5.87391 8.66683 5.16667C8.66683 4.45942 8.38588 3.78115 7.88578 3.28105C7.38568 2.78095 6.70741 2.5 6.00016 2.5C5.29292 2.5 4.61464 2.78095 4.11454 3.28105C3.61445 3.78115 3.3335 4.45942 3.3335 5.16667Z" stroke="black" stroke-width="1.5" stroke-linecap="round" stroke-linejoin="round"/>
<path d="M2 14.5V13.1667C2 12.4594 2.28095 11.7811 2.78105 11.281C3.28115 10.781 3.95942 10.5 4.66667 10.5H7.33333C8.04058 10.5 8.71885 10.781 9.21895 11.281C9.71905 11.7811 10 12.4594 10 13.1667V14.5" stroke="black" stroke-width="1.5" stroke-linecap="round" stroke-linejoin="round"/>
<path d="M10.6665 2.58716C11.2401 2.73403 11.7485 3.06763 12.1116 3.53537C12.4747 4.0031 12.6717 4.57838 12.6717 5.17049C12.6717 5.76261 12.4747 6.33788 12.1116 6.80562C11.7485 7.27336 11.2401 7.60696 10.6665 7.75383" stroke="black" stroke-width="1.5" stroke-linecap="round" stroke-linejoin="round"/>
<path d="M14 14.5003V13.167C13.9966 12.5784 13.7986 12.0075 13.4368 11.5433C13.0751 11.079 12.5699 10.7475 12 10.6003" stroke="black" stroke-width="1.5" stroke-linecap="round" stroke-linejoin="round"/>
</g>
<defs>
<clipPath id="clip0_195_3662">
<rect width="16" height="16" fill="white" transform="translate(0 0.5)"/>
</clipPath>
</defs>
</svg>
