<svg width="25" height="24" viewBox="0 0 25 24" fill="none" xmlns="http://www.w3.org/2000/svg">
<g id="System" clip-path="url(#clip0_192_3197)">
<path id="Vector" d="M8.125 7C8.125 8.06087 8.54643 9.07828 9.29657 9.82843C10.0467 10.5786 11.0641 11 12.125 11C13.1859 11 14.2033 10.5786 14.9534 9.82843C15.7036 9.07828 16.125 8.06087 16.125 7C16.125 5.93913 15.7036 4.92172 14.9534 4.17157C14.2033 3.42143 13.1859 3 12.125 3C11.0641 3 10.0467 3.42143 9.29657 4.17157C8.54643 4.92172 8.125 5.93913 8.125 7Z" stroke="#000000" stroke-width="1.5" stroke-linecap="round" stroke-linejoin="round"/>
<path id="Vector_2" d="M6.125 21V19C6.125 17.9391 6.54643 16.9217 7.29657 16.1716C8.04672 15.4214 9.06413 15 10.125 15H14.125C15.1859 15 16.2033 15.4214 16.9534 16.1716C17.7036 16.9217 18.125 17.9391 18.125 19V21" stroke="#000000" stroke-width="1.5" stroke-linecap="round" stroke-linejoin="round"/>
</g>
<defs>
<clipPath id="clip0_192_3197">
<rect width="24" height="24" fill="white" transform="translate(0.125)"/>
</clipPath>
</defs>
</svg>
