<svg width="21" height="24" viewBox="0 0 21 24" fill="none" xmlns="http://www.w3.org/2000/svg">
<path d="M20.9993 9.83965C18.9356 9.84459 16.9225 9.201 15.2444 7.99981V16.3773C15.2439 17.9289 14.7696 19.4434 13.8851 20.7182C13.0006 21.993 11.748 22.9673 10.2947 23.511C8.84147 24.0547 7.25689 24.1417 5.75285 23.7605C4.2488 23.3793 2.89699 22.548 1.87816 21.3777C0.859328 20.2075 0.222048 18.7541 0.05153 17.2119C-0.118988 15.6697 0.185385 14.1122 0.923949 12.7476C1.66251 11.3831 2.80006 10.2765 4.1845 9.57592C5.56893 8.87533 7.13425 8.6141 8.67116 8.82715V13.0407C7.96787 12.8195 7.21266 12.8262 6.51338 13.0598C5.8141 13.2934 5.20651 13.742 4.77739 14.3415C4.34826 14.941 4.11953 15.6607 4.12388 16.398C4.12822 17.1352 4.36541 17.8523 4.80157 18.4467C5.23773 19.0411 5.85056 19.4825 6.55254 19.7078C7.25452 19.9332 8.00975 19.9309 8.71039 19.7014C9.41103 19.4719 10.0212 19.0269 10.4539 18.43C10.8865 17.833 11.1195 17.1146 11.1194 16.3773V0.00012207H15.2444C15.2416 0.348469 15.2708 0.696341 15.3316 1.03934C15.475 1.80503 15.773 2.53344 16.2075 3.18C16.642 3.82656 17.2039 4.37768 17.8587 4.79965C18.7902 5.41563 19.8825 5.74395 20.9993 5.74372V9.83965Z" fill="#1B1B1B"/>
</svg>
