<svg width="33" height="32" viewBox="0 0 33 32" fill="none" xmlns="http://www.w3.org/2000/svg">
<g clip-path="url(#clip0_258_4977)">
<path d="M18.0893 12H26.9107C27.2815 11.9999 27.6482 12.0772 27.9875 12.2269C28.3267 12.3765 28.6311 12.5953 28.881 12.8692C29.131 13.1431 29.321 13.4661 29.4391 13.8176C29.5571 14.1691 29.6006 14.5414 29.5667 14.9107L28.8107 23.1533C28.6893 24.478 28.0773 25.7094 27.0948 26.6061C26.1123 27.5027 24.8302 27.9999 23.5 28H21.5C20.1698 27.9999 18.8877 27.5027 17.9052 26.6061C16.9227 25.7094 16.3107 24.478 16.1893 23.1533L15.4333 14.9107C15.3994 14.5414 15.4429 14.1691 15.5609 13.8176C15.679 13.4661 15.8691 13.1431 16.119 12.8692C16.3689 12.5953 16.6733 12.3765 17.0125 12.2269C17.3518 12.0772 17.7185 11.9999 18.0893 12Z" stroke="#1B1B1B" stroke-width="1.5" stroke-linecap="round" stroke-linejoin="round"/>
<path d="M20.5 17.3333H20.5133" stroke="#1B1B1B" stroke-width="1.5" stroke-linecap="round" stroke-linejoin="round"/>
<path d="M24.5 17.3333H24.5133" stroke="#1B1B1B" stroke-width="1.5" stroke-linecap="round" stroke-linejoin="round"/>
<path d="M20.5 22C21.8333 22.8893 23.1667 22.8893 24.5 22" stroke="#1B1B1B" stroke-width="1.5" stroke-linecap="round" stroke-linejoin="round"/>
<path d="M12.0093 21.3093C11.84 21.3253 11.6701 21.3333 11.5 21.3333H9.5C8.16984 21.3331 6.88772 20.836 5.90521 19.9393C4.9227 19.0427 4.31071 17.8112 4.18934 16.4866L3.43334 8.24392C3.39941 7.87467 3.44286 7.5024 3.56092 7.15089C3.67898 6.79938 3.86905 6.47635 4.11899 6.20244C4.36894 5.92854 4.67326 5.70976 5.01252 5.5601C5.35178 5.41044 5.71853 5.33318 6.08934 5.33325H14.9107C15.6179 5.33325 16.2962 5.6142 16.7963 6.1143C17.2964 6.6144 17.5773 7.29267 17.5773 7.99992" stroke="#1B1B1B" stroke-width="1.5" stroke-linecap="round" stroke-linejoin="round"/>
<path d="M8.5 10.6667H8.51333" stroke="#1B1B1B" stroke-width="1.5" stroke-linecap="round" stroke-linejoin="round"/>
<path d="M12.5 10.6667H12.5133" stroke="#1B1B1B" stroke-width="1.5" stroke-linecap="round" stroke-linejoin="round"/>
<path d="M8.5 15.9999C9.51867 15.3199 10.5373 15.1599 11.5547 15.5199" stroke="#1B1B1B" stroke-width="1.5" stroke-linecap="round" stroke-linejoin="round"/>
</g>
<defs>
<clipPath id="clip0_258_4977">
<rect width="32" height="32" fill="white" transform="translate(0.5)"/>
</clipPath>
</defs>
</svg>
