<svg width="24" height="24" viewBox="0 0 24 24" fill="none" xmlns="http://www.w3.org/2000/svg">
<path fill-rule="evenodd" clip-rule="evenodd" d="M3.19954 16.8325L1.77246 22.0431L7.10476 20.6448C8.57404 21.4461 10.2281 21.8683 11.9114 21.869H11.9158C17.4594 21.869 21.9722 17.3575 21.9747 11.8135C21.9756 9.12643 20.93 6.60007 19.0312 4.69936C17.1318 2.79866 14.6064 1.75156 11.9158 1.75024C6.37115 1.75024 1.85912 6.26096 1.85686 11.8054C1.8563 13.5776 2.31937 15.3076 3.19954 16.8325ZM3.55524 11.8059C3.55693 7.19781 7.30731 3.44879 11.919 3.44879C14.1522 3.44973 16.2511 4.32009 17.8297 5.89977C19.4082 7.47945 20.2769 9.57948 20.2761 11.8127C20.2742 16.4212 16.5239 20.1706 11.9157 20.1706H11.9126C10.412 20.1699 8.94066 19.7671 7.65732 19.0054L7.35177 18.8243L4.18746 19.654L5.03227 16.57L4.83332 16.2539C3.99648 14.9231 3.55455 13.385 3.55524 11.8059Z" fill="#1B1B1B"/>
<path fill-rule="evenodd" clip-rule="evenodd" d="M9.40185 7.60156C9.21346 7.18314 9.01527 7.17466 8.83629 7.16731C8.68972 7.1611 8.52205 7.16147 8.35457 7.16147C8.1869 7.16147 7.91467 7.2244 7.68446 7.4759C7.45405 7.72741 6.80466 8.33536 6.80466 9.57197C6.80466 10.8086 7.70537 12.0034 7.83084 12.1712C7.9565 12.3389 9.56952 14.9576 12.1243 15.9649C14.2473 16.8022 14.6793 16.6356 15.1403 16.5938C15.6011 16.552 16.6273 15.9858 16.8366 15.399C17.0461 14.8121 17.0461 14.3093 16.9834 14.2042C16.9205 14.0993 16.753 14.0365 16.5015 13.9109C16.2501 13.7852 15.0145 13.1771 14.7841 13.0932C14.5537 13.0094 14.3862 12.9676 14.2185 13.2191C14.051 13.4706 13.5697 14.0365 13.4229 14.2042C13.2764 14.3721 13.1298 14.393 12.8783 14.2673C12.627 14.1413 11.8174 13.8762 10.8572 13.02C10.11 12.3538 9.60569 11.5311 9.45893 11.2796C9.31237 11.0281 9.4433 10.892 9.56933 10.7668C9.68218 10.6541 9.82065 10.4732 9.9465 10.3265C10.0718 10.1797 10.1138 10.075 10.1974 9.9075C10.2813 9.73964 10.2394 9.59288 10.1765 9.46722C10.1138 9.34157 9.62529 8.09854 9.40185 7.60156Z" fill="#1B1B1B"/>
</svg>
